<svg id="Layer_1" data-name="Layer 1" xmlns="http://www.w3.org/2000/svg" viewBox="0 0 562 485"><defs><style>.cls-4{fill:#fff}</style></defs><path fill="#27558d" d="M281 3L3 482h278V3z"/><path fill="#21628a" d="M281 3l278 479H281V3z"/><path fill="#004469" d="M281 366l278 116H4l277-116z"/><path class="cls-4" d="M249 224l15-51h18l-20 66h-27l-19-66h18zM287 239v-66h35q12 0 17 4t5 16q0 11-3 15t-11 6q13 1 13 12v13h-18v-10q0-8-7-8h-14v18zm17-33h14q5 0 6-2t1-8a15 15 0 00-1-6c0-1-2-2-5-2h-15zM185 331v-66h47v15h-29v13h27v14h-27v24zM242 265h18v43q0 6 2 7l9 2q7 0 9-2l2-6v-44h17v44q0 13-6 18t-21 5q-17 0-23-4t-7-18zM313 265h29l19 50v-50h18v66h-30l-19-49v49h-17zM144 358h52v15h-17v51h-17v-51h-18zM204 424v-66h48v14h-30v12h28v12h-28v13h31v15zM260 424l20-66h26l20 66h-18l-3-12h-24l-3 12zm25-25h16l-8-28zM333 358h28l13 41 12-42h28v66h-17v-46l-16 47h-15l-15-47v47h-18z"/></svg>