<svg version="1.1" id="Layer_1" xmlns="http://www.w3.org/2000/svg" x="0" y="0" viewBox="0 0 500 500" xml:space="preserve"><style>.st0{fill:#bed3de}.st1{fill:#a3e9ff}.st2{fill:#73dcff}.st3{fill:#fff}.st4{fill:#87715a}.st5{fill:#96826e}.st6{fill:#e5d9c5}.st10{fill:#b09f8f}.st11{fill:#c8bbaa}.st12{fill:#f5c59a}.st13{fill:#0058bd}.st14{fill:#1a2736}.st15{fill:#d12c52}.st18{fill:#ed4068}.st20{fill:#ba1a3f}.st21{fill:#ffead6}.st26{fill:#334961}.st27{fill:#e49066}.st29{fill:#1f181a}.st30{fill:#0c0b15}.st31{fill:#284694}.st35{fill:#f6b088}.st38{fill:#30294c}.st39{fill:#dedcef}.st40{fill:#acabcc}.st43{fill:#1d1933}.st44{fill:#472a1f}.st46{fill:#1f1d41}.st47{fill:#3c3c7a}.st48{fill:#2e2d5b}.st49{fill:#141227}.st52{fill:#e63637}.st53{fill:#e49165}</style><path class="st0" d="M416 281c0 6-10 8-23 8s-29-6-29-12c0-5 16-9 30-9 13 0 22 8 22 13zM421 400c0 11 26 11 34 10 6-1 24-4 25-10 1-4-2-19-6-15-17 16-53 11-53 15z"/><g id="dinosaur"><path class="st1" d="M292 355l-1-1 6-1-1-1-1-2-10 3-1-1h-1l3-1-2-2-4 2-1-1-1-1 5-2-2-1-1-1-5 3h-2l-1-1 14-9-2-1-1-1h-1l-7 6-3-1 3-3-2-1-2-1-5 7h-2l-1-1 1-2-1-1h-2l-2 4h-1l-1-1h-1l2-8h-4l-1 7h-3v-2h-4l1 3h-4l-3-11h-5l3 7-2 1h-1l-3-4-2 1h-2l5 6-1 1h-2l-1-1-3 1 3 3h-2l-1 1-4-3-1 1h-2l6 3-1 1-1 1-17-8-1 1h-1l-1 1 11 4-3 2-5-2-1 1-1 2 11 3-1 1-5-1v1l-1 1 7 1v1h-1v1l-14-1-1 2 13 1v2h-4v2h6v1l-20 3v2h1l12-2 1 1v2l-6 1 1 1 1 1 10-3 1 1 1 1-3 1 2 2 5-2 1 1h1l-5 3 1 1h1l6-3 1 1h1l-14 10 2 1h1l1 1 7-6 4 1-4 3 2 1h2l6-6h3l-2 3h2l2 1 1-4h3l-2 8 4 1 1-7h4v2h3v-4h3l3 12h4l1-1-3-7h4l2 3h2l2-1-5-6h2l1-1 2 2 3-1-3-3 1-1h1l4 3 2-1 1-1-5-3 1-1h1l16 8 2-1v-1h1l-10-5 2-2 5 2 1-1 1-1-11-3 1-1v-1l5 1v-1l1-1-7-1h1v-1-1l14 2 1-3h-12v-2h4v-1l-1-1h-6v-2l21-2-1-1v-2l-13 2v-1z"/><path class="st2" d="M276 357l-1-1 4-1-1-1-6 2-1-1 1-1-1-1-2 1h-1l-1-1 3-1v-1h-1l-3 2-1-1h-1l9-6h-2l-1-1-4 4-2-1 2-2h-3l-3 3h-1v-1l-1-1h-1l-1 2h-1-1l2-5h-3v4h-2v-1h-2v2h-2l-2-7h-3l2 5h-2l-2-2h-1l-1 1 3 3h-1l-1 1-1-1-2 1 2 1-1 1-3-2h-1v1l3 2h-1v1l-10-5h-1l-1 1 6 3-1 1-3-1h-1v1l6 2-1 1-2-1-1 1 4 1v1l-9-1v2h7v1h-2v2l4-1v1l-13 2 1 1 7-1 1 1v1h-3v1l1 1 6-2v1h1-2l1 2 3-1h1l-3 2h1l1 1 3-2h1v1l-8 5 1 1h1l5-3h2l-2 2 1 1h1l3-4h1l1 1-1 1h1l1 1 1-3h1l1 1-1 4 2 1 1-5h2v2h2v-2l2-1 2 8 1-1h2l-2-4h2l1 2 1-1h2l-3-3 1-1 1 1 2-1-2-1h1v-1h1l2 2 1-1h1l-3-2 1-1 10 5 1-1-6-3 2-1 3 1v-1h1l-7-2 1-1h3v-1h-3v-1h8l1-1h-8v-2h3v-1h-4v-1l12-1v-1l-1-1-7 1z"/><path class="st1" d="M207 362l-1-1h5l-1-1-1-1-7 2-1-1 1-1-1-1-3 1h-1v-1h-1l4-2h-1l-1-1-4 2h-1l-1-1 11-7h-2l-1-1-6 5-2-1 2-3h-1l-2-1-4 5h-1-1l1-2h-1l-1-1-1 3h-2-1l2-6h-3l-1 5h-2v-2h-2-1v3h-2l-3-9h-2l-1 1 2 5h-2l-2-2h-3l3 5h-1l-1 1-1-1h-2l2 2-1 1h-1l-3-2h-1l-1 1 4 2v1h-1l-12-6-2 1v1h-1l8 3-1 2-5-2v1l-1 1 8 2v1h-4l-1 1 5 1v1h-1l-10-1v2l9 1v1h-3v2l4-1 1 2-16 1 1 1v1l9-1 1 1-4 1v1l1 1 8-2v1h1l-2 1 1 1 4-1 1 1-4 2h1l1 1 4-2h2l-10 7 1 1h1l1 1 5-5 2 1-2 3h3l4-4h2l-1 2h1l1 1 2-3h2l-2 6h3l1-5h3v2h2v-3h2l3 9h2l1-1-2-5h3l1 2h2l1-1-3-4h1l1-1 1 1 2-1-2-1v-1h2l3 2 1-1h1l-4-2 1-1 13 5h1v-1h1l-8-3 2-2 4 2 1-1v-1l-8-2 1-1v-1l3 1 1-1-5-1 1-1 10 1 1-2-9-1v-1h3l-1-1v-1l-4 1v-2l15-1-1-1v-1l-9 1v-1z"/><path class="st2" d="M195 364v-1h2v-2l-5 2v-1h-1 1l-1-1-1 1-1-1 2-1h-1v-1l-3 2v-1h-1l6-4v-1h-1l-3 3-2-1 2-1h-1l-1-1-2 3h-1-1l1-1h-1l-1-1v2h-1-1l1-4h-2v3h-2v-1h-1v2h-1l-2-5h-2l1 3h-1l-1-1h-2l2 3h-2-1l1 1v1h-1l-2-1h-1l2 2-8-3h-1v1l5 1-1 1-3-1v1h-1l5 2v1l-2-1-1 1h3v1h-6l-1 1h6v1h-2v1h3l-9 1v2l6-1v1h-2v1l5-1 1 1h-1v1l2-1 1 1-2 1h1v1l3-2 1 1-7 4h2v1l3-3 2 1-2 1h2l2-2h2l-1 1h2v-1h2l-1 3 2 1v-4l1 1v1h1l1-1v-1h1l2 5h2l-2-3h1l1-1 1 2h1l1-1-2-2 1-1 1 1h1l-1-2h1l2 1h1l-3-2h1l8 3 1-1-5-2 1-1 3 1 1-1-5-1v-1l2 1v-1h1l-3-1v-1l6 1 1-1h-6v-1h2v-1h-3v-1l9-1v-1l-6 1z"/><path class="st3" d="M250 383c-10 0-20-3-27-7s-11-10-11-16 4-11 11-16c7-4 17-6 27-6s19 2 26 6c8 5 12 10 12 16s-4 12-12 16c-7 4-16 7-26 7zm0-43c-10 0-19 2-26 6s-11 9-11 14c0 6 4 11 11 15s16 6 26 6c9 0 19-2 26-6 6-4 10-9 10-15 0-5-4-10-10-14-7-4-17-6-26-6z"/><path class="st3" d="M250 376c-7 0-14-1-19-4s-8-7-8-12c0-4 3-8 8-11s12-4 19-4 13 1 18 4c6 3 8 7 8 11 0 5-2 9-8 12-5 3-11 4-18 4zm0-30c-7 0-14 2-18 4-5 3-7 7-7 10s2 8 7 10c4 3 11 5 18 5 6 0 13-2 18-5 4-2 7-6 7-10 0-3-3-7-7-10-5-2-12-4-18-4z"/><path class="st3" d="M250 370c-4 0-8-1-11-3s-5-4-5-7c0-2 2-5 5-6 3-2 7-3 11-3s8 1 10 3c3 1 5 4 5 6 0 3-2 5-5 7-2 2-6 3-10 3zm0-17l-10 2c-3 1-4 3-4 5s1 4 4 6l10 2 10-2c2-2 4-4 4-6s-2-4-4-5l-10-2z"/><g><path class="st3" d="M178 383c-7 0-14-2-20-5-5-3-8-8-8-12s3-9 8-12a43 43 0 0140 0c6 3 9 7 9 12s-3 9-8 12c-6 3-13 5-21 5zm0-32c-7 0-14 1-19 4s-8 7-8 11 3 8 8 11 12 4 19 4c8 0 15-1 20-4s8-7 8-11-3-8-8-11-12-4-20-4z"/><path class="st3" d="M178 378c-5 0-10-1-14-3-4-3-6-6-6-9s2-7 6-9 9-3 14-3 11 1 15 3 6 6 6 9-2 6-6 9c-4 2-9 3-15 3zm0-23c-5 0-9 2-13 4-3 2-5 4-5 7s2 5 5 7c4 2 8 3 13 3 6 0 10-1 14-3 3-2 5-4 5-7s-2-5-5-7c-4-2-8-4-14-4z"/><path class="st3" d="M178 373l-8-2c-2-1-3-3-3-5s1-4 3-5c2-2 5-2 8-2l9 2c2 1 3 3 3 5s-1 4-3 5l-9 2zm0-13l-7 2c-2 1-3 2-3 4s1 3 3 4l7 1 8-1 3-4-3-4-8-2z"/></g><g><path class="st4" d="M348 108l21-8c3-1 6 0 8 1 2 2 2 5 1 7-1 3-4 5-8 8s-16 9-19 6c-4-3-4-14-3-14z"/><path class="st5" d="M348 109l21-8c3-1 6 0 8 2l2 4-2-6c-2-1-5-2-8-1l-21 8v1z"/><path class="st6" d="M360 104v-2l2 1v-2l2 2v-2l1 1 1-2 1 1v-1c1-1 1 0 1 1l1-2 1 1 1-1 1 1 1-1h1v1l1-1 1 2 1-1v1h1v2l1-1v1l-2 1s-1-3-4-3c-5 0-7 1-9 2l-6 3 1-3 1 1z"/><path d="M373 109c0 2-2 4-7 7-5 2-9 4-13 4-1 0-2 0-3-2s-2-5-1-7c1-3 6-2 12-8 2-1 5-2 7-1h2l3 2v5z" fill="#6b2b3a"/><path d="M369 108l-8 6c-4 2-7 4-11 4-1-2-2-5-1-7 1-3 6-2 12-8 2-1 5-2 7-1v1l1 5z" fill="#8a374b"/><path class="st6" d="M353 118l2-2v1l3-2v2h2l1-2v1h2v-2l1 1h2v-2h1l1 1v-1h1l2-2 1 1 1-3 1 1v-2l1 1 1-2h1v-1h1l-1-2 2-2v4l-7 8-12 5-7-1z"/><path d="M375 84l2 5-1 5s-1-3-3-3l-1 2 1 2-3-1v3l-3-1 1 3-3-2v3l-2-1 1 2h-3v2h-2l1 2h-3l1 2h-3l2 3h-3l-1-4 22-22z" fill="#fbeedb"/><path class="st10" d="M379 111c-7 12-22 23-42 23-1 0-9 4-11 8-10 23-32-3-46-21-9-10 14-37 39-37s42-18 52-8c1 2 4 5 4 9 0 3-2 7-7 10-2 2-7 4-10 10-2 3-6 7-6 11l2 1c2 1 8 1 12-2 6-3 9-5 10-7 3-2 3-4 3-4v7z"/><path class="st10" d="M329 133c0 4-7 16-5 40 2 30-14 46-24 46-12 0-13-41-22-68-12-33-3-43 13-56 9-8 38 9 38 38z"/><path class="st5" d="M211 297c-17 18-18 51-38 48-5-1-11-5-10-11 2-17-13-35-15-44-4-15 3-36 11-44 16-17 41-17 58-1 18 17 10 35-6 52z"/><path class="st10" d="M171 256c-7 19-16 35-21 36-2 1-9 6-50 8l-35 1c-11 1-21 5-20 14 0 4 4 14 31 15 16 0 33 21 30 24-1 1-13-13-28-12-36 0-50-8-57-22-8-17-2-33 14-45l11-7c27-16 54-16 122-59l2-2c22-14 14 20 1 49z"/><path class="st4" d="M189 258c-20 2-39 11-42 29l1 3c1 5 4 9 7 15 2 3 9 9 12 10 3 2 5 2 10 3 4 1 13 2 17 9 4-9 10-23 17-30 10-10 16-21 16-32-8-9-21-10-38-7z"/><path class="st10" d="M327 209c-2 11-7 23-19 32l-18 9c-18 7-29 18-37 29l-17 21c-6 4-13 8-19 10-29 11-60 2-69-20-6-12-9-29-7-44 5-26 28-50 90-56 14-1 21-4 34-12 5-3 10-2 13-6 2-3 3-6 2-13-2-20 42-12 42 3l4 25 1 5v17z"/><path class="st5" d="M308 241l-18 9c-18 7-29 18-37 29l-17 21c-6 4-13 8-19 10l2-56s11 1 17 6c4 3 6 7 7 9 2 8 7 2 9 0 2-1 14-16 32-27 10-6 8-7 17-3l7 2z"/><path class="st4" d="M291 238c1 4 2 7 7 7l-1 2 11-6-7-2c-8-3-4-5-10-1z"/><path class="st10" d="M327 205l-2 26c0 7-12 9-22 11-6 1-14-2-13-9 1-4 4-9 7-13 8-10 20-19 26-19 3 0 4 1 4 4zM249 332c-4 5-9 7-15 3l-5-5c-11-13-39-13-48-16l-14-4c-10-5-16-10-17-18-3-24 19-35 43-38 23-4 40-2 44 22 3 23 28 38 12 56z"/><path class="st5" d="M267 350c3 2-6 6-14 12s-14 5-16 2 3-12 12-12 16-3 18-2z"/><path class="st10" d="M227 348c8 19 1 22 7 21s14-10 16-25c1-15 8-16 3-29-1-6-36 12-26 33z"/><path class="st10" d="M271 356c2 3-6 4-14 10s-18 1-20-2c-2-2 0-12 16-8 11 3 16-3 18 0z"/><path class="st5" d="M257 366l7-4-9 1c-5 0-7-2-8-2-6 0-6 6-3 7l8 1 5-3z"/><path class="st10" d="M269 367c-5 3-13 5-17 4-11-2-17 1-19-1l-1-1c-2-2 3-12 17-7 10 4 21 0 23 1 1 1 0 3-3 4z"/><path class="st4" d="M190 355c3 2-5 6-14 11s-14 4-16 1c-2-4 4-12 13-11s16-3 17-1z"/><path class="st5" d="M156 348c1 21-6 21 0 22s17-4 23-17c7-14 8-12 14-24 2-5-38-4-37 19z"/><path class="st5" d="M196 361c1 3-8 5-17 10-8 5-17-1-19-4-2-4 1-13 17-7 10 5 17-2 19 1z"/><path class="st4" d="M187 367h-12c-3-1-7-3-10-1-2 0-2 4 1 6l6 1 7-2 8-4z"/><path class="st5" d="M187 374c-4 2-10 2-13 1-12-4-18-1-20-4-1-1 0-3 1-4 2-3 8-6 17-1 10 5 21 2 23 4 1 1-3 3-8 4z"/><path class="st10" d="M308 258v2l-4 5h-1a4 4 0 01-2 0 3 3 0 01-1 0l-1-1v-12c0-7 2-16 4-19 3-6 21-11 21-7 3 14-11 22-16 32z"/><path class="st10" d="M301 259c-1 3-2 6 1 6 5-1 10-5 18-7 5-1 4-4 3-5s-20 2-22 6z"/><path class="st5" d="M322 253c-3 2-2 4 1 5 5 1 10-4 18 0l-7-6c-3-1-9-1-12 1z"/><path class="st10" d="M322 253c-3 2-4 4-1 6 4 2 11-1 17 5 4 4-4-7-5-8-3-2-9-5-11-3z"/><path class="st5" d="M106 354c-2-4-11-12-15-14-3-2-11-5-17-5-10 0-20-2-27-5-6-2-16-11-17-21s5-21 14-28c12-10 31-17 57-22 11-1 27-7 40-13a79 79 0 008 47c-4 1-14 6-49 7l-35 1c-9 1-18 4-20 11v3c0 4 4 14 31 15l5 1c15 4 28 21 25 23z"/><path class="st11" d="M170 218c-5 3-29 23-90 42l-25 9c-2 1-9 4-13 8-5 3-11 11-11 8 1-3 7-11 15-17 27-16 54-16 122-59 2 4 4 8 2 9z"/><path class="st11" d="M262 184c-28 11 15 12 5 17-10 4-31-5-61 7l-32 17c-15 6-24 15-33 21 5-26 28-50 90-56 14-1 21-4 34-12 5-3 10-2 13-6l2-3c0 4-5 10-18 15zM227 262c0 7-15-20-31 9-8 14-33 15-33 8s15-28 39-28c15 0 25 4 25 11z"/><path class="st5" d="M241 323c-5 0-6 1-7 2-1 2 0 5 2 6 1 2-6 2-8 8-2 8 1 15 1 15-1-4-5-8-4-17l3-7c-11-13-38-13-47-15l-14-5s29 4 46 2c10-2 9 6 22 7 8 1 10 4 6 4z"/><path class="st4" d="M148 290c-6-12-9-28-7-43l-4 13c-1 15 1 20 1 24 1 4 2 5-6 7-8 3-12 3-23 4l-17 3-3 2h11c35-1 45-6 49-7l-1-3z"/><path class="st11" d="M325 209l-10 1c-4 0-5 7-6 11-1 3-2 7-6 9-6 1-8-2-7-5l1-5c8-10 11-15 17-16 7 0 11 5 11 5z"/><path class="st5" d="M338 264c-6-6-13-3-17-5l-1-1-16 7h-2-1a5 5 0 01-1 0l-1-1v-12c1 4-1 9 5 7l4-1 11-2c5 0 8 0 12 2l8 6h-1z"/><path class="st11" d="M241 307s5 0 8 4c3 3 3 4 3 5s-2 2-4 1c-2-2-1-4-2-6l-5-4z"/><path class="st4" d="M196 323l-7-1s2 6-1 9c-3 4-6 3-7 2l1 4v7l-1 5 8-13 7-13zM187 355l-1 1 2 2 3-1 1 1v-3l-3-1-2 1zM191 360v2l1 2 4-1 1 1s1-2-1-3l-2-1h-3zM263 350v2l1 1h3l1 1v-4h-5zM267 355v2l1 2 4-1v1s2-2 0-3l-2-1h-3zM268 363v2l1 1h3l1 1v-4h-5zM190 369l-1 2 1 1h4l1 1v-3l-2-1h-3zM81 331l-3-1-13 1c-3 0-9-1-12-3-2-1-9-3-9-7-1-5 1-8 1-9v3c0 4 4 14 31 15l5 1z"/><path class="st11" d="M360 75l-19 6c-6 2-13 3-22 3a46 46 0 00-29 12c-8 7-15 13-17 23 3-5 5-7 7-8 5-2 7 0 14-1 3-1 10-6 13-5 5 1 9 2 11 1l6-7c5-3 40-13 44-16 6-4-2-9-8-8z"/><path class="st4" d="M330 101s-3-1-6 1c-2 3 0 7 2 7l12-5c4-1-8-3-8-3z"/><path class="st5" d="M341 131c-4 0-4-3-4-4l-3 4c-2 1-6 4-8 8l-2 7v5l2-8c2-5 10-9 11-9 10 0 19-3 26-7 0 0-17 5-22 4zM375 85c0 3-2 7-7 10-2 2-7 4-10 10-2 3-6 7-6 11l2 1-4-2c-2 0-6 1-2-1 4-3 3-4 3-6l6-6 6-5 8-5c2-1 4-5 4-7zM327 209l-3-3c-2-2-6-2-6-2l4-2c3 0 3-2 4-5l-1-12c2 7 3 18 2 24z"/><path class="st4" d="M191 373c-5 2-10 4-16 3-13-3-19-2-21-5-1-1 8 2 12-1 1-1 2 2 6 3l8 2 6-1 5-1z"/><path class="st5" d="M269 367c-5 3-13 5-17 4-11-2-17 1-19-1h3l5-4 3 2 5 2h5l6-1 9-2z"/></g></g><path class="st0" d="M365 418c0 1-8 7-13 7l-6 3c-4 2-11 1-15-2l-12-11c-4-4-2-7 1-5 1 1 18 6 22 5l15-3c3-1 8 1 8 6z"/><g id="woman_back_2_9_"><path class="st12" d="M367 305l1-2v-3-2l-1-1-1 1h1v1l-1-1v-2l-1 1 1 1v1l-1-1-1-2-1 1 1 1 1 2-1-2-1-1v5l2 3h2z"/><path class="st12" d="M364 303l-1-2v-1h-1v2l2 3v-2z"/><path class="st13" d="M367 327h-4s-10-6-12-10c-1-2-2-6 1-7s6 2 6 3c4 7 10 11 10 11l-1 3z"/><path class="st13" d="M366 304l2 1 1 15c0 2 0 6-3 7-2 1-4-2-4-2l2-19s0-2 2-2z"/><path class="st12" d="M352 423h-3l-3-1-4-2-3-2c0-2 2-2 3-2h4l1-1c3-2 5 0 5 1 0 3 2 6 0 7z"/><path class="st14" d="M341 415l2 1c-1 1 0 3 1 3l4 1 3-1 1-1v5h-3l-3-1-5-1-2-3c-1-1 0-3 2-3z"/><path class="st15" d="M346 383s-1 7 5 6c2-1 2-3 2-3l3-21v-12s-2-2-7-2l-7 2 4 30z"/><path class="st15" d="M352 416c0 1 0 2-2 2s-3-1-3-2l-1-24v-8s0-3 4-2l3 3 2 7c0 5-1 17-3 24z"/><g><path d="M345 426l-3 1-3-1h-4l-3-2c-1-1 0-3 1-3h5l1-2c2-2 4-1 5 0 1 3 4 5 1 7z" fill="#fcdec2"/><path d="M333 421h3c-1 1 0 3 1 3h4l3-2 1-1c1 2 2 4 0 5l-3 1-3-1h-4l-3-2c-1-1-1-3 1-3z" fill="#27394d"/></g><g><path class="st18" d="M331 388s1 3 4 4c1 1 3 1 3-1l6-19 4-11s-2-5-10-7c-3-1-5 2-5 2l-2 11v21z"/><path class="st18" d="M344 418c0 2 0 3-3 3-1 1-3 0-3-2l-6-24-1-7s0-2 4-2c3 1 4 4 4 4l2 5 3 23z"/></g><g><path class="st15" d="M353 347l1 3 2 4 1 6c-1 2-5 4-10 2 0 0 0-9-3-14l9-1z"/><path class="st18" d="M333 354l1-4 10-2c3 5 6 11 4 14-1 2-2 3-5 3s-5-2-9-6l-1-1v-4z"/><path d="M334 351l3 2c4 2 8 2 11 1l5-3 1-3-1-12 4-15v-8c0-2-1-3-3-3l-11 2-9 6-1 5-1 6 1 3c1 1 2 0 2 2 1 4 0 11-1 17z" fill="#9ce2f8"/><path class="st20" d="M352 360l2-1 2-3-1-4-5 3 1 4 1 1zM342 362h2l2-2v-5l-6 1v4l2 2z"/></g><g><path class="st21" d="M307 308h-2l-2-3-1-2v-1h1v-1-1l1 2v-3h1v0l1 2 2 2 1 4-2 1z"/><path class="st21" d="M308 304v-2-1c0-1 0-1 0 0l1 2v3l-1-2z"/><path class="st13" d="M314 327c-1-2 1-4 1-4l22-6c3-1 4 2 3 4 0 3-3 4-4 5l-19 4-3-3z"/><path class="st13" d="M307 307h2l10 15s2 5-2 8c-1 1-3-1-3-2l-9-19 2-2z"/></g><g><linearGradient id="SVGID_1_" gradientUnits="userSpaceOnUse" x1="325" y1="314.7" x2="325" y2="304.4" gradientTransform="matrix(-1 0 0 1 671 0)"><stop offset=".1" stop-color="#fcd1a9"/><stop offset=".1" stop-color="#facba1"/><stop offset=".4" stop-color="#f4bb8c"/><stop offset=".5" stop-color="#f2b585"/></linearGradient><path d="M349 304v8l-1 2h-5l-1-2v-8h7z" fill="url(#SVGID_1_)"/><linearGradient id="SVGID_2_" gradientUnits="userSpaceOnUse" x1="325.5" y1="300" x2="334.1" y2="300" gradientTransform="matrix(-1 0 0 1 671 0)"><stop offset="0" stop-color="#f2b98c"/><stop offset=".4" stop-color="#f7c69b"/><stop offset=".9" stop-color="#fcd1a9"/></linearGradient><path d="M337 298l1-7c2-1 7 5 7 7v4l-2 2-1 4v1h-2l-2-3-2-6 1-2z" fill="url(#SVGID_2_)"/><path d="M340 301v1l-1 1-1-3 1-1 1 2z" fill="#f5c091"/><linearGradient id="SVGID_3_" gradientUnits="userSpaceOnUse" x1="336.9" y1="303.7" x2="336.9" y2="281.7" gradientTransform="scale(-1 1) rotate(5 -70 -7157)"><stop offset="0" stop-color="#f2b98c"/><stop offset=".5" stop-color="#f6c398"/><stop offset=".9" stop-color="#fcd1a9"/></linearGradient><path d="M338 291l2-2h8l4 2 2 5v3l-1 4-2 3-2 2s-1 2-3 2l-4-2v-9l-2-2c-2-3-3-5-2-6z" fill="url(#SVGID_3_)"/><path class="st14" d="M337 290l3-2c2 0 5-1 8 1l4 2 3 5v8l1 6c-1 4-1 6-3 8 0 0-1 3-8 3-3 0-7-9-5-20l-1-2-1-1c-3-2-2-5-2-6l1-2z"/><path class="st26" d="M338 290v1l-1 3 1 2 2 1 2 5 1 10 1 3 1 1-1-1-1-3-1-10-2-4-2-2-1-2 1-3v-1z"/><path class="st26" d="M339 291v3l1 1 2 1 1 2 1 5 1 10 2 2 2 1-2-1-2-2-1-10-1-5-2-1-2-2-1-3 1-1z"/><path class="st26" d="M345 300a18 18 0 001 3v6l3 5 2 1h0l-2-1-3-5-1-4v-2-3z"/></g></g><path class="st27" d="M395 199l-2 8-15-2v1s13 8 16 7 5-11 5-11l-4-3z"/><path d="M394 200l3-11s0-4 3-5c4 0 6 5 6 6l-6 12s-4 1-6-2z" fill="#17223b"/><path class="st29" d="M391 271h-1l1-2 1 2z"/><path class="st30" d="M391 271l3-1 1-7h-6l-2 3-6 4-2 2s1 2 5 1l4-1 3-1z"/><path class="st30" d="M391 271l-3 1-4 1c-4 1-5-1-5-1l1-1c1 2 13-3 11-4l-4-1 2-3h6l-1 7-3 1z"/><path class="st31" d="M412 227l-18 13 1 24s-1 3-8 0l-3-26c0-4 14-16 16-19 4-4 12 8 12 8z"/><path class="st29" d="M405 284l-1-1 1-1 1 1z"/><path class="st30" d="M409 284l3-1v-7h-6l-1 3-6 4-2 2s0 2 4 1l5-1s2-2 3-1z"/><path class="st30" d="M409 284c-1-1-3 1-3 1l-5 1c-4 1-4-1-4-1v-1c1 2 13-4 11-4l-3-1 1-3h6v7l-3 1z"/><path class="st31" d="M414 277s-4 3-9 0c0 0-4-29-3-31 0-5 5-24 4-25l-3-6c0-2 19 5 19 5l-1 6c-1 6-8 22-8 23l1 28z"/><path d="M420 189l-7-4-13-1c-1 1-4 9-1 19l1 17s5 4 12 3c0 0 7 0 11-4 0 0-4-14-3-17s3-12 0-13z" fill="#1e3665"/><path class="st27" d="M424 197l6 12c1 1 2 5 0 5l-19-1v-2l15-2-5-7 3-5z"/><g><path d="M405 184v5l1 1s5-1 7-5c0 0-2-3-1-9h-1l-6 8z" fill="#f19d70"/><path d="M413 185l-2 3v-6l-6 4v-2l6-8h1c-1 6 1 9 1 9z" fill="#d3794c"/><path class="st35" d="M400 170v5l1 6 1 4h3l5-4 2-4s0 1 0 0l1-3-1-1-1 1-1-5c-2-2-8-3-10 1z"/><path d="M411 174v2l-1-1-1-4h-9l1-3s2-4 9-3c0 0 5 0 5 8l-2 5-1 4v-5s0 2 1-1l-1-3-1 1z" fill="#422c2f"/></g><g><path d="M422 205l-7-9s-3-3-1-6 5-3 7 0l7 11s-3 4-6 4z" fill="#2d4d80"/></g><g><path class="st38" d="M399 174l1-2 2 1h5s2 1 1 5l-9-4z"/><path class="st38" d="M406 176l-9-1v3l1 1 7 1h1v-4z"/><path class="st39" d="M407 174l-8-1-3 2 2 1h1l1 1 4 3h2l2-2-1-3v-1z"/><path class="st40" d="M405 180h1l2-2-1-3-2 2v3z"/><path d="M396 176l1 3 9 1-1-3-8-2-1 1z" fill="#40386d"/><path d="M397 176v3l9 1-1-3-8-1z" fill="#24204a"/><path class="st39" d="M408 177v-2z"/></g><path class="st43" d="M414 169l-6 6v2l7-6-1-2z"/><path class="st35" d="M410 213l2-1 1-1-1-3-1-4v3s0 1 0 0l-2-4-1 1 2 3-1 1-2-5-1 1 2 4-3-3v1l3 4v1l-3-1v1l3 1 2 1z"/><path class="st27" d="M380 205l-1-3c0-1 0 0 0 0l-2-1h-2v4l4 2 1-2z"/><path class="st44" d="M378 203l-1 7h-1v-7h2z"/><path class="st27" d="M376 201s0-1 0 0h2v1h1l-1 2-1-1v1l-1 1v-4z"/><g><path class="st44" d="M381 201v1h-7v-2z"/><path class="st44" d="M380 200l1 1h-6l-1-1z"/><path d="M378 201h-2l5-44s0-4 4-5l-7 49z" fill="#cbc9e5"/></g><path class="st44" d="M376 210v1l1-1v-1l-1 1z"/><g><path class="st46" d="M454 291v4l-3 2v-6z"/><path class="st47" d="M451 291v6l-2-1v-5z"/><path class="st35" d="M453 301l-2-8h3l3 8h-4z"/><path class="st35" d="M451 294l-2-2v-4l3-1s2-1 3 1c1 1 1 5-1 6h-3z"/><path class="st46" d="M451 288v-3l3-2v5z"/><path class="st48" d="M451 285l3-2-4-3-4 2z"/><path class="st47" d="M451 286v-1l-5-3v1z"/><path class="st47" d="M449 288v-4l2 1v3z"/><g><path class="st46" d="M430 294v4l-3 2v-6z"/><path class="st47" d="M427 294v6l-1-1v-5z"/></g><g><path class="st35" d="M427 296s5 21 7 24l3-7-7-17h-3z"/><path class="st35" d="M434 315l15-12 6 4-17 13h-4v-5z"/><path class="st49" d="M473 387s3 5 3 10c0 0-6 4-8 1l-10-2 1-3 10-2 4-4z"/><path class="st49" d="M460 396s3 6 2 10c0 0-2 3-7 1h-4l-6-2s-1-2 1-3l9-2 5-4z"/><path d="M479 338l-11 20 3 9 4 22s-2 4-8 2l-7-23c-1-4-2-6-1-16 1-8 6-21 6-21l14 7z" fill="#008aaf"/><path d="M473 336s5 3-15 26c0 0-3 5-2 6l2 7 3 23s-1 5-7 2c0 0-7-23-8-31-1-6 9-28 10-32l17-1z" fill="#009cd2"/><path class="st52" d="M462 293l-6 1s-5 14-1 25l-1 23s7 2 18 0l8-4-2-16v-12c3-11 2-17 0-19 0 0-1-2-5-1l-11 3z"/><path class="st35" d="M460 272l-1 5-1 6 1 5 2 1h2v4c-1 3 8 2 9-1v-6l3-8c0-2 0-7-5-9-3-1-6 0-10 3z"/><path class="st53" d="M472 286v-1h1v-1-1l1-2-6-3c-1-1-1 5-2 6-1 3-4 3-5 4h-2l2 1h2v4c-1 3 8 2 9-1v-6zM475 273c-1-2-2-3-5-4s-5 0-9 3c0 0-2 0-2 3h6l10-2z"/><path d="M465 282l1-2s1-2 2-1l-1 3c-1 2 0 4 1 5h4l2-5c2-3 2-9 1-11l-4-3c-2-1-5 0-9 1l-4 4 1 1h5v3l1 3v2z" fill="#1e1613"/><path class="st52" d="M448 314l12-8c4-3 6-14-3-12 0 0-2 0-7 6l-9 8c1 2 2 6 7 6z"/><path class="st40" d="M458 277l5 1-1 4h-4v-5z"/><path d="M458 282v-4h4v4h-4z" fill="#8282b5"/><path class="st43" d="M463 279v2s10 1 13-2v-3s1 4-13 3z"/><path class="st35" d="M465 281l2-2c1 0 2 2 0 4l-2-2z"/></g><path class="st35" d="M427 297s-2-1-2-3v-3c0-2 3-1 3-1s2-1 3 1c1 1 1 4-1 6h-3z"/><g><path class="st46" d="M427 291v-3l3-2v5z"/><path class="st48" d="M427 288l3-2-4-3-4 2z"/><path class="st47" d="M427 289v-1l-5-3v1z"/><path class="st47" d="M426 291v-4l1 1v3z"/></g></g></svg>