<svg id="Layer_1" data-name="Layer 1" xmlns="http://www.w3.org/2000/svg" viewBox="0 0 200 200"><defs><clipPath id="clip-path"><path fill="none" d="M0 0h200v200H0z"/></clipPath><style>.cls-3{fill:#fff}.cls-4{fill:#1d71b8}.cls-5{fill:#0093ca}.cls-6{fill:#3c3c3b}.cls-7{fill:#185184}.cls-8{fill:#1d1d1b}</style></defs><g clip-path="url(#clip-path)"><circle class="cls-3" cx="51.7" cy="78" r="43"/><path class="cls-3" d="M95 78a43 43 0 01-43 43c-10 0-28-19-28-43s16-43 28-43a43 43 0 0143 43zM24 62S9 64 9 66 7 77 9 76l15-5z"/><path class="cls-3" d="M59 106c-12 0-18-11-18-12a3 3 0 014-2s5 9 14 9c8 0 15-9 15-9a3 3 0 114 3s-8 11-19 11zM102 67c0-10-7-22-20-22H36c-9 0-18 7-17 20s3 20 14 20 23-5 36-5 21 4 26 3 6-8 7-16zM-7 163h132v-18c0-11-37-25-66-25s-66 15-66 28z"/><circle class="cls-4" cx="52.2" cy="79.5" r="40.1"/><path class="cls-5" d="M93 80a40 40 0 01-40 40c-10 0-26-18-26-40s15-41 26-41a40 40 0 0140 41z"/><path class="cls-6" d="M27 64s-15 3-15 4-2 10 0 10l15-5z"/><path class="cls-7" d="M59 105c-11 0-17-10-17-10a2 2 0 014-3c0 1 5 9 13 9s14-9 14-9a2 2 0 114 3c-1 1-8 10-18 10z"/><path class="cls-8" d="M99 69c0-9-6-20-18-21s-35 1-43 1-17 6-16 18 3 19 13 19 21-5 33-5 20 4 25 4 5-8 6-16z"/><path class="cls-5" d="M-3 162h123v-17c0-9-34-23-61-23s-62 14-62 26z"/><circle class="cls-3" cx="147.1" cy="78" r="43"/><path class="cls-3" d="M191 78a43 43 0 01-43 43c-11 0-28-19-28-43s16-43 28-43a43 43 0 0143 43zM120 62s-16 2-16 4-2 11 0 10l16-5z"/><path class="cls-3" d="M154 106c-11 0-18-11-18-12a3 3 0 014-2s6 9 14 9c9 0 15-9 15-9a3 3 0 014 3s-8 11-19 11zM197 67c0-10-6-22-19-22h-47c-9 0-17 7-16 20s2 20 14 20 22-5 35-5 21 4 26 3 6-8 7-16zM88 163h132v-18c0-11-36-25-66-25s-66 15-66 28z"/><circle class="cls-4" cx="147.5" cy="79.5" r="40.1"/><path class="cls-5" d="M188 80a40 40 0 01-40 40c-9 0-26-18-26-40s15-41 26-41a40 40 0 0140 41z"/><path class="cls-6" d="M122 64s-15 3-15 4-1 10 0 10l15-5z"/><path class="cls-7" d="M154 105c-10 0-17-10-17-10a2 2 0 014-3c0 1 5 9 13 9s14-9 14-9a2 2 0 014 3c0 1-8 10-18 10z"/><path class="cls-8" d="M194 69c1-9-6-20-18-21s-35 1-43 1-17 6-16 18 3 19 13 19 21-5 33-5 20 4 25 4 6-8 6-16z"/><path class="cls-5" d="M93 162h122v-17c0-9-33-23-61-23s-61 14-61 26z"/></g></svg>