<svg id="Layer_1" data-name="Layer 1" xmlns="http://www.w3.org/2000/svg" viewBox="0 0 200 200"><defs><clipPath id="clip-path"><path fill="none" d="M0 0h200v200H0z"/></clipPath><style>.cls-3{fill:#1d71b8}.cls-4{fill:#0093ca}.cls-5{fill:#3c3c3b}.cls-6{fill:#185184}.cls-7{fill:#1d1d1b}.cls-8{fill:#fff}</style></defs><g clip-path="url(#clip-path)"><circle class="cls-3" cx="51.4" cy="68" r="39.9"/><path class="cls-4" d="M92 68a40 40 0 01-40 40c-10 0-26-18-26-40s15-40 26-40a40 40 0 0140 40z"/><path class="cls-5" d="M26 53s-14 2-14 4-2 10-1 9l15-4z"/><path class="cls-6" d="M58 94c-11 0-17-10-17-11a2 2 0 014-2s5 8 13 8 14-8 14-8a2 2 0 014 2c0 1-8 11-18 11z"/><path class="cls-7" d="M98 57c0-8-6-19-18-20s-35 1-43 1-17 6-16 18 3 18 13 18 21-4 33-4 20 3 25 3 5-8 6-16z"/><path class="cls-4" d="M-3 150h122v-17c0-9-34-23-61-23s-61 15-61 26z"/><circle class="cls-3" cx="147.7" cy="69" r="39.9"/><path class="cls-4" d="M188 69a40 40 0 01-40 40c-9 0-26-18-26-40s15-40 26-40a40 40 0 0140 40z"/><path class="cls-5" d="M122 54s-14 2-14 4-2 10 0 9l14-4z"/><path class="cls-6" d="M154 95c-10 0-16-10-17-11a2 2 0 014-2s5 8 13 8 14-8 14-8a2 2 0 014 2c0 1-7 11-18 11z"/><path class="cls-7" d="M194 58c1-8-6-19-18-20s-34 1-43 1-16 6-15 18 2 18 13 18 20-4 32-4 20 3 25 3 5-8 6-16z"/><path class="cls-4" d="M93 151h122v-17c0-9-33-23-61-23s-61 15-61 26z"/><circle class="cls-8" cx="98.8" cy="86.9" r="48.2"/><path class="cls-8" d="M148 87a48 48 0 01-49 48c-11 0-31-21-31-48s18-48 31-48a48 48 0 0149 48zM68 68s-17 4-17 5-2 12-1 12l18-6z"/><path class="cls-8" d="M107 118c-13 0-20-12-21-13a3 3 0 015-3c0 1 6 10 16 10 9 0 17-10 17-10a3 3 0 014 4s-9 12-21 12zM155 74c0-10-7-24-22-25s-42 1-52 1-20 7-18 22 3 22 15 22 25-5 40-5 24 4 29 4 7-9 8-19zM33 182h148v-20c0-12-41-28-74-28s-74 17-74 32z"/><circle class="cls-3" cx="99.3" cy="88.6" r="45"/><path class="cls-4" d="M145 89a45 45 0 01-45 45c-11 0-29-21-29-45s16-45 29-45a45 45 0 0145 45z"/><path class="cls-5" d="M71 71s-17 3-17 5-2 11 0 11l17-6z"/><path class="cls-6" d="M107 118c-12 0-19-12-19-12a3 3 0 114-3s6 9 15 9 16-9 16-9a3 3 0 114 3c0 1-9 12-20 12z"/><path class="cls-7" d="M152 77c0-10-7-23-21-23H83c-9 0-19 7-17 21s2 20 14 21 23-5 37-5 22 3 28 3 6-8 7-17z"/><path class="cls-4" d="M38 181h138v-19c0-11-38-26-69-26s-69 16-69 30z"/></g></svg>