<svg id="Layer_1" data-name="Layer 1" xmlns="http://www.w3.org/2000/svg" viewBox="0 0 562 485"><defs><style>.cls-1{fill:#fff}.cls-2{fill:none;stroke:#fff;stroke-miterlimit:10;stroke-width:.75px}</style></defs><path class="cls-1" d="M249 224l15-50h17l-19 65h-27l-19-65h18zM284 239v-65h35q11 0 16 4t5 15q0 12-2 15t-12 6q14 1 14 12v13h-18v-10q0-8-7-8h-13v18zm18-33h13l6-1 1-8a14 14 0 00-1-6q-1-2-5-2h-14zM188 330v-65h46v14h-29v13h26v14h-26v24zM242 265h17v42q0 5 2 7l9 1 8-1c2-1 2-4 2-7v-42h18v43q0 13-6 17t-21 5q-16 0-23-3t-6-18zM309 265h29l19 49v-49h17v65h-30l-18-49v49h-17zM148 356h52v15h-17v49h-18v-49h-17zM205 420v-65h48v15h-30v12h28v12h-28v12h30v14zM258 420l19-65h27l19 65h-17l-4-11h-23l-3 11zm25-23h16l-8-29zM328 356h27l13 40 11-40h29v65h-18v-47l-15 46h-15l-15-46v46h-17z"/><path class="cls-2" d="M281 7l272 471H9L281 7zM281 7v136M9 478l116-49M553 478l-116-49"/></svg>