<svg version="1.1" id="Layer_1" xmlns="http://www.w3.org/2000/svg" xmlns:xlink="http://www.w3.org/1999/xlink" x="0" y="0" viewBox="0 0 500 500" xml:space="preserve"><style>.st0{fill:#bed3de}.st1{fill:#1a2736}.st2{fill:#334961}.st3{fill:#27394d}.st4{fill:#fcd1a9}.st5{fill:#0058bd}.st8{fill:#ebad77}.st9{enable-background:new}.st10{fill:#fbeedb}.st11{fill:#fff7eb}.st14{fill:#b09f8f}.st15{fill:#c8bbaa}.st16{fill:#3b5570}.st22{fill:#030653}.st23{fill:#97bce8}.st24{clip-path:url(#SVGID_9_)}.st26{fill:#fff}.st27{fill:#bbd1f6}.st29,.st31{fill-rule:evenodd;clip-rule:evenodd;fill:#c69a7b}.st31{fill:#fa329c}.st33{opacity:.5}.st38,.st39,.st40{fill-rule:evenodd;clip-rule:evenodd;fill:#0433b5}.st39,.st40{fill:#030653}.st40{fill:#97bce8}.st50{opacity:.3}.st60{fill:#f5c59a}.st61{fill:#d12c52}.st63{fill:#ed4068}.st64{fill:#ba1a3f}.st65{fill:#ffead6}</style><g id="man_face_3_12_"><path class="st0" d="M287 239c-1 2 17 11 24 11l36-1c3 0 10 6 12 6 9-1 6-14 6-15-1-8-29-1-38-3l-16-3c-4-1-24 2-24 5z"/><path class="st1" d="M324 239c0 1 0 3-2 3l-7 1c-1 2-4 3-6 3-3 1-5 0-5-2l3-3 6-4 2-2c1-1 3 2 3 2l4-1c1-1 1-2 2-1v4z"/><path class="st2" d="M323 238c0 2-1 2-2 3l-5 1-6 2c-3 1-6 0-6-1l4-3c3-1 4-2 5-4l2-2c0-2 3 2 3 2 3 1 4 0 5-1h1v2l-1 1z"/><path class="st3" d="M324 235h-1c-1 1-2 2-5 1l-3 4-5 3c-2 1-5 2-6 0 0 3 2 3 5 2l6-3 6-1 3-2v-4z"/><path class="st4" d="M364 241v6l-1 1-2 3-3 1-2-4 1-8v-4c2-3 7-2 6 0l1 5z"/><path class="st1" d="M364 242l1 4-1 5c-2 3-7 3-8 1v-5l1-7c0-5 6-7 7-2v4z"/><path class="st2" d="M364 245l-1 4-2 2c-1 1-3 2-4 1-2-1-2-1-1-4v-9c0-1 1-4 5-3l3 1v8z"/><path class="st3" d="M364 237h-1v9l-2 4c-1 1-2 2-3 1-2 0-2-1-3-2l1 3h6l2-4v-4-5-2z"/><g><path class="st1" d="M329 190s-4 9-10 5c-3-1-2-4-2-4l4-24c3-14 6-19 6-19l9 4 11 5-18 33z"/><path class="st1" d="M324 235l-3 3c-2 0-8-1-7-2l3-39v-6l6-2c3-1 5 2 5 2l1 11c0 7-4 28-5 33z"/></g><g><path class="st2" d="M362 196s1 4-4 8c-2 1-6 0-7-2l-12-42s3-2 14-4c4-1 6 1 6 1l3 39z"/><path class="st2" d="M363 238c0 2-2 4-4 4s-3 0-3-2l-4-35-1-5 6-4c5-2 5 2 5 2l3 8c1 7-1 27-2 32z"/></g><g><path class="st4" d="M307 115c-1-3 2-6 2-6l16-8c3-2 6-3 8-1s-1 6-2 8c-12 9-23 11-23 11l-1-4z"/><path class="st5" d="M321 114c4-1 6-3 10-6 1-2 4-6 2-8s-5-1-8 1l-7 3 3 10z"/><path class="st4" d="M282 108c1-2 3-2 3-2l25 3 1 5c0 5-4 5-7 4l-21-7-1-3z"/><path class="st4" d="M282 107l-1-4-1-1-1-1h1l3 2 2 3c0 3-3 2-3 1z"/><path class="st4" d="M285 110l-3 1-4-1-3-1h-2l1-1h1l2 1-2-2-3-1 1-1 2 1 2 1-2-1-3-2 1-1 3 1 2 1-2-1-2-1 1-1 2 1 4 2 4 2v3z"/></g><g><path class="st1" d="M338 145l-8-1-1 3v4c0 2 4 4 6 7l5 2c-1-6-3-9-2-15z"/><path class="st2" d="M358 152l-1-5-18-2c-3 6-1 13 0 15 1 1 5 1 8-1l7-2 5 1-1-6z"/><path d="M358 152l-3 2c-5 2-13 2-16 2-4 0-10-2-11-3-2-1 1-7 1-9v-12l-2-8-1-10v-10c0-3 2-5 4-5 0 0 12 0 17 2l11 4c2 1 3 4 2 9l-1 4c-3 14-1 28-1 34z" fill="#9ce2f8"/></g><g><linearGradient id="SVGID_1_" gradientUnits="userSpaceOnUse" x1="-272.8" y1="160.9" x2="-278.3" y2="144.1" gradientTransform="rotate(-1 -3736 -38936)"><stop offset=".1" stop-color="#fcd1a9"/><stop offset=".1" stop-color="#facba1"/><stop offset=".3" stop-color="#f4bb8c"/><stop offset=".5" stop-color="#f2b585"/></linearGradient><path d="M336 86v14l2 2h7l1-2V85l-10 1z" fill="url(#SVGID_1_)"/><path class="st4" d="M352 85c-2 3-6 3-7 5l-2 4-2 2-4 2h-3l-2-1-1-2v-3l-1-5 1-3 1-7 4-3 8-2c2 0 4 1 6 4 2 2 2 5 2 7v2z"/><path class="st3" d="M346 94v-1-3-3l-2 1v2h-2v-3-2-1s1-1 0 0h-2c-3 0-7-2-8-4l-1-2c0-2 9-7 14-6 7 1 8 8 8 11-1 0-1 6-7 11z"/><path class="st2" d="M349 79l-1-1c1 0 1-2 3-1l-2-3-5-2-6 2-2 1h1c-2 0-5 2-5 3l4 2h-1s4 2 7 0h2l-2-1h7z"/><g><path class="st8" d="M344 89v2c0 1 0 2 1 1l2-3c0-2-1-3-2-2l-1 2z"/><path class="st4" d="M344 89v2l1 1 2-4c0-2-1-2-2-2l-1 3z"/><path class="st8" d="M346 88v-1l-1 1v-1h1l1 2-1 2v-3z"/><path class="st8" d="M345 89v1l1-1-1-1v1z"/></g><g><g class="st9"><path class="st1" d="M330 79h1l3 3 8 3 2 1v6l-1 1h-1v-6l-1-1-12-6 1-1z"/><path class="st10" d="M329 80c0-1 0-1 0 0l12 6-2 1-12-6h-1l3-1z"/><path class="st11" d="M326 81h1l12 6-1 1-11-6h-1v-1z"/><linearGradient id="SVGID_2_" gradientUnits="userSpaceOnUse" x1="366.2" y1="73.2" x2="369.7" y2="65.7" gradientTransform="scale(-1 1) rotate(2 -647 -22263)"><stop offset=".5" stop-color="#b09f8f"/><stop offset=".6" stop-color="#c6b6a5"/><stop offset=".8" stop-color="#e3d4c2"/><stop offset=".9" stop-color="#f5e7d4"/><stop offset="1" stop-color="#fbeedb"/></linearGradient><path d="M339 87l2-1 1 1v7l-2 1v-6l-1-2z" fill="url(#SVGID_2_)"/><radialGradient id="SVGID_3_" cx="379.6" cy="62.7" r="8.6" gradientTransform="scale(-1 1) rotate(2 -647 -22263)" gradientUnits="userSpaceOnUse"><stop offset="0" stop-color="#334961"/><stop offset=".6" stop-color="#223244"/><stop offset="1" stop-color="#1a2736"/></radialGradient><path d="M327 82h-1v6l1 1 12 6v-6l-1-1-11-6z" fill="url(#SVGID_3_)"/><path class="st11" d="M338 88l1-1 1 2v5l-1 1v-6l-1-1z"/></g><path class="st14" d="M343 92v-4 4z"/><path class="st15" d="M343 91l7-4 3-4v-2l-4 3-6 4v3zM342 89l1-1h-1z"/><path class="st14" d="M342 92h1-1z"/></g></g><g><path class="st4" d="M329 150l-1 3-4 3-3 1h-1s-1 0 0 0l1-1h-1l-2 1v-2h2l1-1-2 1h-3v-1l3-1h-3l2-1 4-3c1-2 3-2 4-2l3 3z"/><path class="st4" d="M323 150l-3-2-1 1-1-1v-1h7s0 3-2 3zM351 136c-4 1-6-3-6-3l5-18c1-2 4-10 8-9 3 0 4 4 4 6-2 10-6 19-8 23l-3 1z"/><path class="st5" d="M348 120l11 3 3-11c0-2-1-5-4-6-4-1-7 6-8 8l-2 6z"/><path class="st4" d="M327 150c-2-2-1-3-1-3l21-16s5-3 7 1-3 8-5 10l-21 10-1-2z"/></g></g><g id="man_face_3_11_"><path class="st0" d="M201 244c0 1-17 11-24 11l-36-2c-3 0-10 6-12 6-9-1-6-14-6-15 1-8 29-1 37-2l17-3c4-2 24 1 24 5z"/><path class="st10" d="M170 240c0 2 0 3 2 4l7 1c2 2 5 3 7 3 3 1 5 0 4-2l-2-3-7-4-1-2c-1-2-4 1-4 1-3 1-3 0-4-1h-2v3z"/><path class="st16" d="M171 240c0 2 1 2 2 3l6 1 6 2c3 1 5 0 5-1l-4-3-5-4-1-2c-1-2-4 2-4 2-3 1-4 0-4-1l-2-1v3l1 1z"/><path class="st3" d="M170 236l2 1c0 1 1 2 4 1l4 4c1 1 3 3 5 3h5c1 3-2 3-4 2-3 0-5-1-7-3l-6-1-3-3v-4z"/><path class="st4" d="M127 243v7l2 4 3 1c1-1 3-3 3-5l-1-7v-5c-2-3-6-1-6 0l-1 5z"/><path class="st10" d="M127 245l-1 3 1 5c2 4 6 4 8 2v-5l-1-7c0-6-6-8-7-2v4z"/><path class="st16" d="M127 247v4l3 3c1 1 3 2 4 1s2-1 1-4v-9c0-2 0-5-5-3h-2l-1 3v5z"/><path class="st3" d="M128 239v2l-1 8 3 4 3 1c2 0 2-2 2-2v2c-1 2-5 2-6 0l-2-3v-5-4l1-3z"/><g><path class="st1" d="M165 194s5 8 10 4c3-1 2-4 2-4l-5-23-6-18-9 4-11 5 19 32z"/><path class="st1" d="M170 237c0 1 1 2 3 2 2 1 7 0 7-2-2-12-3-34-3-37v-6s-1-2-6-2c-3-1-5 2-5 2l-1 11 5 32z"/></g><g><path class="st2" d="M131 199s-1 4 4 8c1 1 5 0 6-1l14-41-14-5c-3-1-5 1-5 1l-5 38z"/><path class="st2" d="M128 240c0 2 2 4 4 4 1 0 3 0 3-2l5-34 1-4s-1-3-6-5c-4-1-4 2-4 2l-3 8c-2 7-1 26 0 31z"/></g><g><path class="st4" d="M181 129c2-2 1-6 1-6l-11-14c-2-2-5-5-7-4-3 1-2 6-1 8 6 13 16 19 16 19l2-3z"/><path d="M168 122l-5-9c-1-2-2-7 1-8 2-1 5 2 7 4l4 6c-1 4-5 6-7 7z" fill="#0051ad"/><path class="st4" d="M206 133c0-3-2-3-2-3l-22-7s-3 0-4 4c-2 4 1 5 4 6l22 2 2-2z"/><path class="st4" d="M207 130l1-3 2-1v-1l-1-1-3 2-3 3c-1 4 3 3 4 1z"/><path class="st4" d="M202 134l3 1h6l3-1h2v-1h-4l3-1h2v-2l-3 1-2 1 2-2 4-1-1-1-3 1-3 1 3-2 2-1-1-1-2 1-5 1-5 2-1 4z"/></g><g><path class="st1" d="M156 151l8-1 1 3v3c0 2-4 4-6 8l-4 1c0-5 2-8 1-14z"/><path class="st2" d="M136 157l2-5 17-2c3 7 1 13 0 16l-8-1-7-2h-4v-6z"/><path class="st10" d="M134 120v2l1 2 1 10v24l4 2c5 2 12 2 16 2l11-5c1-1-2-7-2-9v-10l2-8 1-10 1-10-2-3c0-1-1-2-3-2 0 0-12 0-17 2l-10 4c-3 2-4 4-3 9z"/></g><g><linearGradient id="SVGID_4_" gradientUnits="userSpaceOnUse" x1="66.2" y1="187.1" x2="60.9" y2="170.6" gradientTransform="scale(-1 1) rotate(-3 -1617 4479)"><stop offset=".1" stop-color="#fcd1a9"/><stop offset=".1" stop-color="#facba1"/><stop offset=".3" stop-color="#f4bb8c"/><stop offset=".5" stop-color="#f2b585"/></linearGradient><path d="M158 94l-1 13-1 2h-7l-1-2V92l10 2z" fill="url(#SVGID_4_)"/><path class="st4" d="M143 91c1 4 5 4 6 6l2 4 2 2 4 2h3l2-1 1-1v-4-5-3l-1-6c-1-3-3-3-4-4l-7-2c-2 0-5 1-7 4-2 2-2 4-2 7l1 1z"/><path class="st3" d="M148 101v-1-3-3h2l1 3h1v-5-1-1l2 1 9-3v-2c0-3-8-7-13-7-7 1-8 8-8 10 0 1 0 7 6 12z"/><path class="st2" d="M145 85h1s-1-2-2-1l2-3 4-1c2-1 4 0 7 1l2 1h-2l5 3-4 2h1s-3 2-6 0h-3 3l-3-1-5-1z"/><g><path class="st8" d="M150 96v2l-1 1-2-4c0-1 1-2 2-1 2 0 1 1 1 2z"/><path class="st4" d="M150 96v2l-1 1-2-4 2-2c2 1 1 2 1 3z"/><path class="st8" d="M148 95l1-1v0c-1 0 0 0 0 0l-2 1 2 2-1-2zM149 96v-1 1z"/></g><g><g class="st9"><path class="st1" d="M165 87h-2l-3 2-8 3-1 1-1 6 1 1h1v-6l1-1 12-6z"/><path class="st10" d="M165 87l-12 6 2 1 12-5h1l-3-2z"/><path class="st11" d="M168 89h-1l-12 5 1 1 12-6z"/><linearGradient id="SVGID_5_" gradientUnits="userSpaceOnUse" x1="28.1" y1="105.2" x2="31.5" y2="97.9" gradientTransform="rotate(4 157 1984)"><stop offset=".7" stop-color="#b09f8f"/><stop offset=".8" stop-color="#d3c4b2"/><stop offset=".9" stop-color="#fbeedb"/></linearGradient><path d="M155 94l-2-1-1 1v6l2 2v-6l1-2z" fill="url(#SVGID_5_)"/><radialGradient id="SVGID_6_" cx="41.5" cy="94" r="8.8" gradientTransform="rotate(4 157 1984)" gradientUnits="userSpaceOnUse"><stop offset="0" stop-color="#334961"/><stop offset=".6" stop-color="#223244"/><stop offset="1" stop-color="#1a2736"/></radialGradient><path d="M168 89v6l-1 1-12 6v-6l1-1 12-6z" fill="url(#SVGID_6_)"/><path class="st11" d="M156 95l-1-1-1 2v6h1v-6l1-1z"/></g><path class="st14" d="M151 98c0 1 0 1 0 0v-3 3z"/><path class="st15" d="M151 98l-6-4-3-4v-3l3 4a58 58 0 006 4v3z"/><linearGradient id="SVGID_7_" gradientUnits="userSpaceOnUse" x1="681.9" y1="109.5" x2="683" y2="109.5" gradientTransform="scale(-1 1) rotate(-2 -161 24697)"><stop offset="0" stop-color="#c8bbaa"/><stop offset="1" stop-color="#b09f8f"/></linearGradient><path fill="url(#SVGID_7_)" d="M152 95h-1 1z"/><path class="st14" d="M152 99h-1v-1h1z"/></g></g><g><path class="st4" d="M114 158c-2 0-2 1-3 2l-1 5v5h1v-1-2 2l1 3h2l-1-3v-2 3l2 3h1l-1-3v-3l1 3v2h1v-3l1-4c2-3 1-5 0-6-2-2-3-1-4-1z"/><path class="st4" d="M116 163l3 2 1 2h2l-1-3-3-4s-3 2-2 3zM116 133c2 3 6 4 6 4l14-13c2-1 7-7 4-10-1-3-5-2-6-1-9 6-15 13-18 17v3z"/><path class="st5" d="M132 128c-3-1-7-5-7-8l9-7c2-2 5-2 6 1 3 3-2 9-4 10l-4 4z"/><path class="st4" d="M115 160h3l5-26s1-6-4-6c-4 0-6 5-6 9l-1 23h3z"/></g></g><path class="st22" d="M173 293a31 31 0 0010 22 63 63 0 0017 13 155 155 0 00133-2 70 70 0 008-5c10-9 15-18 15-28 0-9-5-19-15-27l-1-1-11-6c-35-19-93-19-129 0a63 63 0 00-20 15c-4 6-7 13-7 19z"/><path class="st23" d="M356 293v-4c0-12-9-25-27-34-35-19-93-19-129 0-18 9-27 22-27 34v4c0-12 9-24 27-34 36-19 94-19 129 0 18 10 27 22 27 34z"/><defs><path id="SVGID_8_" d="M173 293c0 12 8 24 23 33l4 2a155 155 0 00133-2l7-5h1c10-9 15-18 15-28 0-9 15-52-19-87-28-29-103-32-149 13-26 25-15 62-15 74z"/></defs><clipPath id="SVGID_9_"><use xlink:href="#SVGID_8_" overflow="visible"/></clipPath><g class="st24"><path class="st23" d="M343 333v-2-65H187v65l1 2c1 6 7 12 19 17l3 1c30 12 80 12 111 0l10-4c7-4 11-9 12-14z"/><path d="M188 266c-1 8 6 16 19 23l3 1c30 14 80 14 111 0l9-5c9-6 14-13 13-19 0-7-5-14-14-20l-9-4c-30-13-79-13-109 0-15 6-23 15-23 24z" fill="#edf4fe"/><path class="st26" d="M265 306c-38 0-72-13-77-30v2c3 18 38 31 77 31 40 0 75-13 78-31v-2c-5 17-39 30-78 30z"/><path class="st27" d="M265 306c-38 0-72-14-77-31v2c3 18 38 31 77 31 40 0 75-13 78-31v-2c-5 17-39 31-78 31z"/><path class="st26" d="M265 315c-38 0-72-12-77-28v2c3 16 38 29 77 29 40 0 74-13 78-29v-2c-5 16-39 28-78 28z"/><path class="st27" d="M265 315c-38 0-72-13-77-29v1c3 17 38 30 77 30 40 0 75-13 78-30v-1c-5 16-39 29-78 29z"/></g><g class="st24"><path class="st22" d="M213 267c0 3 2 6 5 8l1 1a38 38 0 009 4 130 130 0 0080-2h1c6-3 9-7 9-11 0-3-3-7-9-10h-1l-5-3c-21-7-54-7-75 0l-11 6c-3 2-4 5-4 7z"/><path class="st23" d="M318 267v-1c0-5-5-11-15-15-21-7-54-7-75 0-10 4-15 10-15 15v1c0-4 5-9 15-13 21-7 54-7 75 0 10 4 15 9 15 13z"/></g><g><defs><path id="SVGID_10_" d="M213 267c0 3 2 6 5 8l1 1a38 38 0 009 4 130 130 0 0080-2h1c6-3 9-7 9-11 0-3 18-37 18-58 0-26-2-61-20-76-27-23-90-30-110-23-5 2-61 36-48 101 7 35 55 55 55 56z"/></defs><clipPath id="SVGID_11_"><use xlink:href="#SVGID_10_" overflow="visible"/></clipPath><g clip-path="url(#SVGID_11_)"><path id="XMLID_243_" class="st29" d="M260 281v12l10-6v-12z"/><linearGradient id="XMLID_2_" gradientUnits="userSpaceOnUse" x1="260.1" y1="284" x2="270.4" y2="284"><stop offset="0" stop-color="#840ca3"/><stop offset="1" stop-color="#e1109a"/></linearGradient><path id="XMLID_242_" fill-rule="evenodd" clip-rule="evenodd" fill="url(#XMLID_2_)" d="M260 281v12l10-6v-12z"/><path id="XMLID_241_" class="st31" d="M260 281l-10-5 10-7 10 6z"/><linearGradient id="XMLID_3_" gradientUnits="userSpaceOnUse" x1="250.1" y1="284" x2="260.2" y2="284"><stop offset="0" stop-color="#840ca3"/><stop offset="1" stop-color="#e1109a"/></linearGradient><path id="XMLID_240_" fill-rule="evenodd" clip-rule="evenodd" fill="url(#XMLID_3_)" d="M260 281v12l-10-6v-11z"/><g class="st33"><path class="st29" d="M246 197l22-13v-23l-22 12z"/><linearGradient id="SVGID_12_" gradientUnits="userSpaceOnUse" x1="246" y1="178.7" x2="268" y2="178.7"><stop offset="0" stop-color="#840ca3"/><stop offset="1" stop-color="#e1109a"/></linearGradient><path fill-rule="evenodd" clip-rule="evenodd" fill="url(#SVGID_12_)" d="M246 197l22-13v-23l-22 12z"/><path class="st31" d="M225 161l21 12 22-12-21-13z"/><linearGradient id="SVGID_13_" gradientUnits="userSpaceOnUse" x1="224.9" y1="178.9" x2="246.4" y2="178.9"><stop offset="0" stop-color="#840ca3"/><stop offset="1" stop-color="#e1109a"/></linearGradient><path fill-rule="evenodd" clip-rule="evenodd" fill="url(#SVGID_13_)" d="M225 184l21 13v-24l-21-12z"/></g><path id="XMLID_216_" class="st29" d="M259 264v14l13-8v-14z"/><linearGradient id="XMLID_4_" gradientUnits="userSpaceOnUse" x1="258.9" y1="266.9" x2="272.1" y2="266.9"><stop offset="0" stop-color="#840ca3"/><stop offset="1" stop-color="#e1109a"/></linearGradient><path id="XMLID_215_" fill-rule="evenodd" clip-rule="evenodd" fill="url(#XMLID_4_)" d="M259 264v14l13-8v-14z"/><path id="XMLID_214_" class="st31" d="M259 264l-13-8 13-8 13 8z"/><linearGradient id="XMLID_5_" gradientUnits="userSpaceOnUse" x1="246.2" y1="267" x2="259.1" y2="267"><stop offset="0" stop-color="#840ca3"/><stop offset="1" stop-color="#e1109a"/></linearGradient><path id="XMLID_213_" fill-rule="evenodd" clip-rule="evenodd" fill="url(#XMLID_5_)" d="M259 264v14l-13-8v-14z"/><path id="XMLID_239_" class="st29" d="M255 234v14l13-8v-14z"/><path id="XMLID_238_" class="st38" d="M255 234v14l13-8v-14z"/><path id="XMLID_237_" class="st39" d="M255 234l-13-8 13-7 13 7z"/><path id="XMLID_236_" class="st40" d="M255 234v14l-13-7v-15z"/><path id="XMLID_235_" class="st29" d="M230 234l-1 14 13-7v-15z"/><path id="XMLID_234_" class="st38" d="M230 234l-1 14 13-7v-15z"/><path id="XMLID_233_" class="st39" d="M230 234l-13-7 13-8 12 7z"/><path id="XMLID_232_" class="st40" d="M230 234l-1 14-12-7v-14z"/><path id="XMLID_231_" class="st29" d="M268 246v14l13-7v-14z"/><linearGradient id="XMLID_6_" gradientUnits="userSpaceOnUse" x1="267.7" y1="249.4" x2="280.9" y2="249.4"><stop offset="0" stop-color="#840ca3"/><stop offset="1" stop-color="#e1109a"/></linearGradient><path id="XMLID_230_" fill-rule="evenodd" clip-rule="evenodd" fill="url(#XMLID_6_)" d="M268 246v14l13-7v-14z"/><path id="XMLID_229_" class="st31" d="M268 246l-13-7 13-8 13 8z"/><linearGradient id="XMLID_7_" gradientUnits="userSpaceOnUse" x1="255" y1="249.5" x2="267.9" y2="249.5"><stop offset="0" stop-color="#840ca3"/><stop offset="1" stop-color="#e1109a"/></linearGradient><path id="XMLID_228_" fill-rule="evenodd" clip-rule="evenodd" fill="url(#XMLID_7_)" d="M268 246v14l-13-7v-14z"/><g><path id="XMLID_227_" class="st29" d="M281 224v15l13-8v-14z"/><linearGradient id="XMLID_8_" gradientUnits="userSpaceOnUse" x1="280.9" y1="227.6" x2="294.2" y2="227.6"><stop offset="0" stop-color="#840ca3"/><stop offset="1" stop-color="#e1109a"/></linearGradient><path id="XMLID_226_" fill-rule="evenodd" clip-rule="evenodd" fill="url(#XMLID_8_)" d="M281 224v15l13-8v-14z"/><path id="XMLID_223_" class="st31" d="M281 224l-13-7 13-8 13 8z"/><linearGradient id="XMLID_9_" gradientUnits="userSpaceOnUse" x1="268.2" y1="227.6" x2="281.2" y2="227.6"><stop offset="0" stop-color="#840ca3"/><stop offset="1" stop-color="#e1109a"/></linearGradient><path id="XMLID_222_" fill-rule="evenodd" clip-rule="evenodd" fill="url(#XMLID_9_)" d="M281 224v15l-13-8v-14z"/></g><g><path id="XMLID_221_" class="st29" d="M291 258v14l13-8v-14z"/><path id="XMLID_220_" class="st38" d="M291 258v14l13-8v-14z"/><path id="XMLID_219_" class="st39" d="M291 258l-13-8 13-7 13 7z"/><path id="XMLID_217_" class="st40" d="M291 258v14l-13-7v-15z"/></g><g><path id="XMLID_212_" class="st29" d="M242 246v14l13-7v-14z"/><linearGradient id="XMLID_10_" gradientUnits="userSpaceOnUse" x1="242.2" y1="249.4" x2="255.5" y2="249.4"><stop offset="0" stop-color="#840ca3"/><stop offset="1" stop-color="#e1109a"/></linearGradient><path id="XMLID_211_" fill-rule="evenodd" clip-rule="evenodd" fill="url(#XMLID_10_)" d="M242 246v14l13-7v-14z"/><path id="XMLID_210_" class="st31" d="M242 246l-12-7 13-8 12 8z"/><linearGradient id="XMLID_11_" gradientUnits="userSpaceOnUse" x1="229.5" y1="249.5" x2="242.5" y2="249.5"><stop offset="0" stop-color="#840ca3"/><stop offset="1" stop-color="#e1109a"/></linearGradient><path id="XMLID_209_" fill-rule="evenodd" clip-rule="evenodd" fill="url(#XMLID_11_)" d="M242 246v14l-12-7v-14z"/></g><g><path id="XMLID_208_" class="st29" d="M244 208v14l13-7v-15z"/><linearGradient id="XMLID_12_" gradientUnits="userSpaceOnUse" x1="244" y1="211.3" x2="257.2" y2="211.3"><stop offset="0" stop-color="#840ca3"/><stop offset="1" stop-color="#e1109a"/></linearGradient><path id="XMLID_207_" fill-rule="evenodd" clip-rule="evenodd" fill="url(#XMLID_12_)" d="M244 208v14l13-7v-15z"/><path id="XMLID_206_" class="st31" d="M244 208l-12-8 12-7 13 7z"/><linearGradient id="XMLID_13_" gradientUnits="userSpaceOnUse" x1="231.3" y1="211.3" x2="244.2" y2="211.3"><stop offset="0" stop-color="#840ca3"/><stop offset="1" stop-color="#e1109a"/></linearGradient><path id="XMLID_205_" fill-rule="evenodd" clip-rule="evenodd" fill="url(#XMLID_13_)" d="M244 208v14l-13-7 1-15z"/></g><g><path id="XMLID_204_" class="st29" d="M280 196v21l19-11 1-22z"/><path id="XMLID_203_" class="st38" d="M280 196v21l19-11 1-22z"/><path id="XMLID_202_" class="st39" d="M280 196l-19-11 20-12 19 11z"/><path id="XMLID_201_" class="st40" d="M280 196v21l-19-11v-21z"/></g><linearGradient id="SVGID_14_" gradientUnits="userSpaceOnUse" x1="2304.2" y1="222.8" x2="2304.2" y2="178.7" gradientTransform="matrix(-1 0 0 1 2602 0)"><stop offset="0" stop-color="#840ca3"/><stop offset="1" stop-color="#e1109a"/></linearGradient><path d="M314 190l-19-11h-1l-2 1h2l18 10-18 10-7-4v1l7 4v20l-10-6-2 1 12 7h1l19-11v-22zm-19 31v-20l18-10v20l-18 10z" fill="url(#SVGID_14_)"/><g class="st50"><path id="XMLID_200_" class="st29" d="M215 133v10l10-5v-11z"/><path id="XMLID_199_" class="st38" d="M215 133v10l10-5v-11z"/><path id="XMLID_184_" class="st39" d="M215 133l-9-6 9-6 10 6z"/><path id="XMLID_182_" class="st40" d="M215 133v10l-10-5 1-11z"/></g><g class="st50"><path id="XMLID_181_" class="st29" d="M178 182v16l14-9 1-15z"/><path id="XMLID_180_" class="st38" d="M178 182v16l14-9 1-15z"/><path id="XMLID_176_" class="st39" d="M178 182l-14-8 15-9 14 9z"/><path id="XMLID_175_" class="st40" d="M178 182v16l-14-9v-15z"/></g><g><path id="XMLID_173_" class="st29" d="M238 195l-1 14 13-7 1-14z"/><path id="XMLID_172_" class="st38" d="M238 195l-1 14 13-7 1-14z"/><path id="XMLID_171_" class="st39" d="M238 195l-13-7 13-8 13 8z"/><path id="XMLID_170_" class="st40" d="M238 195l-1 14-12-7v-14z"/></g><g class="st33"><path id="XMLID_169_" class="st29" d="M316 189v8l7-4v-8z"/><linearGradient id="XMLID_14_" gradientUnits="userSpaceOnUse" x1="315.7" y1="191.1" x2="323.5" y2="191.1"><stop offset="0" stop-color="#840ca3"/><stop offset="1" stop-color="#e1109a"/></linearGradient><path id="XMLID_168_" fill-rule="evenodd" clip-rule="evenodd" fill="url(#XMLID_14_)" d="M316 189v8l7-4v-8z"/><path id="XMLID_167_" class="st31" d="M316 189l-8-4 8-5 7 5z"/><linearGradient id="XMLID_15_" gradientUnits="userSpaceOnUse" x1="308.2" y1="191.1" x2="315.8" y2="191.1"><stop offset="0" stop-color="#840ca3"/><stop offset="1" stop-color="#e1109a"/></linearGradient><path id="XMLID_165_" fill-rule="evenodd" clip-rule="evenodd" fill="url(#XMLID_15_)" d="M316 189v8l-8-4v-8z"/></g><g class="st33"><path id="XMLID_149_" class="st29" d="M318 231v9l8-5v-9z"/><linearGradient id="XMLID_16_" gradientUnits="userSpaceOnUse" x1="317.7" y1="233.2" x2="325.8" y2="233.2"><stop offset="0" stop-color="#840ca3"/><stop offset="1" stop-color="#e1109a"/></linearGradient><path id="XMLID_148_" fill-rule="evenodd" clip-rule="evenodd" fill="url(#XMLID_16_)" d="M318 231v9l8-5v-9z"/><path id="XMLID_147_" class="st31" d="M318 231l-8-4 8-5 8 4z"/><linearGradient id="XMLID_17_" gradientUnits="userSpaceOnUse" x1="310" y1="233.2" x2="317.9" y2="233.2"><stop offset="0" stop-color="#840ca3"/><stop offset="1" stop-color="#e1109a"/></linearGradient><path id="XMLID_146_" fill-rule="evenodd" clip-rule="evenodd" fill="url(#XMLID_17_)" d="M318 231v9l-8-5v-8z"/></g><g class="st33"><path id="XMLID_143_" class="st29" d="M198 238v16l15-9v-16z"/><linearGradient id="XMLID_18_" gradientUnits="userSpaceOnUse" x1="197.7" y1="241.4" x2="213.3" y2="241.4"><stop offset="0" stop-color="#840ca3"/><stop offset="1" stop-color="#e1109a"/></linearGradient><path id="XMLID_142_" fill-rule="evenodd" clip-rule="evenodd" fill="url(#XMLID_18_)" d="M198 238v16l15-9v-16z"/><path id="XMLID_84_" class="st31" d="M198 238l-15-9 15-9 15 9z"/><linearGradient id="XMLID_19_" gradientUnits="userSpaceOnUse" x1="182.8" y1="241.5" x2="198" y2="241.5"><stop offset="0" stop-color="#840ca3"/><stop offset="1" stop-color="#e1109a"/></linearGradient><path id="XMLID_60_" fill-rule="evenodd" clip-rule="evenodd" fill="url(#XMLID_19_)" d="M198 238v16l-15-9v-16z"/></g><g class="st33"><path id="XMLID_247_" class="st29" d="M290 146v7l6-3v-8z"/><linearGradient id="XMLID_20_" gradientUnits="userSpaceOnUse" x1="289.8" y1="147.9" x2="296.4" y2="147.9"><stop offset="0" stop-color="#840ca3"/><stop offset="1" stop-color="#e1109a"/></linearGradient><path id="XMLID_246_" fill-rule="evenodd" clip-rule="evenodd" fill="url(#XMLID_20_)" d="M290 146v7l6-3v-8z"/><path id="XMLID_245_" class="st31" d="M290 146l-6-3 6-4 6 3z"/><linearGradient id="XMLID_21_" gradientUnits="userSpaceOnUse" x1="283.4" y1="147.9" x2="289.9" y2="147.9"><stop offset="0" stop-color="#840ca3"/><stop offset="1" stop-color="#e1109a"/></linearGradient><path id="XMLID_244_" fill-rule="evenodd" clip-rule="evenodd" fill="url(#XMLID_21_)" d="M290 146v7l-7-3 1-7z"/></g><linearGradient id="SVGID_15_" gradientUnits="userSpaceOnUse" x1="219.5" y1="218.3" x2="219.5" y2="177.3"><stop offset="0" stop-color="#840ca3"/><stop offset="1" stop-color="#e1109a"/></linearGradient><path d="M235 208l-14 9v-19l7-3v-2l-7 4-17-9 17-10 10 6h1l-11-7-18 10-1 1v20h1l17 10h1l16-9-2-1zm-15 9l-16-10v-18l16 9v19z" fill="url(#SVGID_15_)"/></g></g><g><path class="st0" d="M122 392c0 2 11 9 18 9 2 0 4 3 7 5 5 2 14 1 19-3l16-14c5-6 3-9-1-6-2 1-23 7-28 6l-19-4c-5-2-12 2-12 7z"/><g id="woman_back_2_11_"><path class="st60" d="M120 248l-1-2v-4l1-3v-1h1l-1 1v2l1-2 1-2h1l-1 2v2l1-2 1-2h1l-1 2-1 2 1-2 1-1h1l-1 2v4c1 2-1 3-2 4h-3z"/><path class="st60" d="M124 245l1-2v-1l1-1h1v3l-3 3v-2z"/><path class="st3" d="M121 276h5s12-8 15-13c1-2 3-7-1-9s-8 2-9 4c-4 9-12 14-12 14l2 4z"/><path class="st3" d="M122 247c-1-1-3 1-3 1l-1 20c0 2 0 7 3 9 4 1 6-4 6-4l-3-24s0-2-2-2z"/><path class="st60" d="M140 399h4l4-1 5-2 3-3c1-2-2-3-3-3h-3l-3 1-1-2c-4-3-7 0-6 1 0 4-3 8 0 9z"/><path class="st1" d="M154 389l-3 1c1 2 0 4-1 4-1 1-4 2-6 1l-3-1-2-1c-1 3-1 5 1 6h4l4-1 5-2 3-3c1-2 0-4-2-4z"/><path class="st61" d="M148 348s0 9-7 8c-3-1-2-4-2-4l-5-28c-1-9 1-15 1-15s1-3 9-2l9 3-5 38z"/><path class="st61" d="M139 390c0 2 1 2 3 2s5 0 4-2l2-31v-10s-1-3-5-2c-3 1-5 4-5 4l-2 9 3 30z"/><g><path d="M148 403l4 1 4-1 6-1 3-1c1-2 1-4-1-4h-3l-4-1v-1c-3-4-6-3-7-1-1 4-5 7-2 9z" fill="#fcdec2"/><path class="st3" d="M164 396l-3 1c1 1 0 3-2 4l-6-1-3-2-1-1c-2 2-3 5-1 6l4 1 4-1h6l3-2c2-2 1-5-1-5z"/></g><g><path class="st63" d="M167 355s-2 4-5 5c-2 0-4 0-5-2l-8-24-4-14s2-6 13-9c3-1 6 2 6 2l2 15 1 27z"/><path class="st63" d="M150 393c0 3 0 4 3 4 2 0 4-1 4-3 3-14 8-28 9-31l1-8s0-3-5-3c-4 1-6 4-6 4l-3 7-3 30z"/></g><g><path class="st61" d="M138 301l-1 4-3 5v8c1 3 5 6 12 3 0 0 0-11 3-17l-11-3z"/><path class="st63" d="M164 311c0-3-2-5-2-5l-13-2c-3 6-7 12-4 17 1 2 2 4 7 3 2 0 6-1 10-7l2-2v-4z"/><path class="st15" d="M163 307l-4 3c-5 2-10 2-14 0l-6-3-2-4c1-3 2-11 1-16l-5-18c-1-5-2-8 0-11 0-2 2-4 5-4 0 0 10 1 13 3l11 7c2 1 1 3 2 7 0 4 1 6 2 7l-2 4c-2 1-3 1-3 3-1 5 1 14 2 22z"/><path class="st64" d="M139 318l-3-1-1-3 1-6 7 4-2 5-2 1zM153 321l-3-1-2-1v-7l7 1v5c0 2-1 2-2 3z"/></g><g><path class="st65" d="M197 252l3-1 2-3 2-3v-1h-1v1l-1 1 1-2v-2h-1v2l-1 1 1-2v-2l-2-1v5-3-1h-1v2l-2 3c-2 1-2 3-2 4l2 2z"/><path class="st65" d="M196 246v-2l1-1-1-1h-1l-1 3 1 4 1-3z"/><path class="st3" d="M189 277c1-2-2-6-2-6l-25-7c-3-1-4 2-4 5 1 3 4 5 6 6l21 5 4-3z"/><path class="st3" d="M198 250h-4l-12 19s-3 7 2 11c2 1 4-2 5-3l11-24-2-3z"/></g><g><linearGradient id="SVGID_16_" gradientUnits="userSpaceOnUse" x1="189.3" y1="260.2" x2="189.3" y2="247" gradientTransform="translate(-41)"><stop offset=".1" stop-color="#fcd1a9"/><stop offset=".1" stop-color="#facba1"/><stop offset=".4" stop-color="#f4bb8c"/><stop offset=".5" stop-color="#f2b585"/></linearGradient><path d="M143 247v10l1 2h7l2-2v-10h-10z" fill="url(#SVGID_16_)"/><linearGradient id="SVGID_17_" gradientUnits="userSpaceOnUse" x1="189.8" y1="241.4" x2="200.9" y2="241.4" gradientTransform="translate(-41)"><stop offset="0" stop-color="#f2b98c"/><stop offset=".4" stop-color="#f7c69b"/><stop offset=".9" stop-color="#fcd1a9"/></linearGradient><path d="M159 238l-1-8c-3-2-9 7-9 9v5l3 3 1 4v2l2-1 3-3 2-7-1-4z" fill="url(#SVGID_17_)"/><path d="M155 242v2l1 1 1-3c0-1 0-3-1-2s-2 1-1 2z" fill="#f5c091"/><linearGradient id="SVGID_18_" gradientUnits="userSpaceOnUse" x1="196" y1="260.5" x2="196" y2="232.3" gradientTransform="rotate(5 245 -295)"><stop offset="0" stop-color="#f2b98c"/><stop offset=".5" stop-color="#f6c398"/><stop offset=".9" stop-color="#fcd1a9"/></linearGradient><path d="M158 229l-3-2c-3-2-7-1-10 0l-5 3-4 6v4l2 5 3 4 2 3s1 2 4 2l6-2s-2-9 0-12l2-3c3-3 4-6 3-8z" fill="url(#SVGID_18_)"/><path class="st1" d="M159 229l-4-2c-3-1-7-2-10 0l-5 3-4 6v11l-1 7c0 5 0 8 3 10 1 1 2 5 11 5 4 0 8-12 6-26l1-3 2-1c3-3 3-7 2-7l-1-3z"/><path class="st2" d="M157 228l1 2 1 4-1 2-3 2-2 6-1 13-2 4-1 1 1-1 1-4 1-13c0-2 1-5 3-6l2-2 1-2v-4l-1-2z"/><path class="st2" d="M156 230l1 1-1 4-3 2-1 2-2 7c0 4 0 9-2 12 0 2-2 3-3 3l-1 1 1-1 3-3 1-12 2-7 2-3 2-1 1-2 1-2-1-1z"/><path class="st2" d="M149 241l-1 4v3l-1 5-3 6-3 2h-1 1l2-2c2-1 3-4 4-7l1-4a64 64 0 011-7z"/><path class="st10" d="M161 234l-1 2v1l4-1-3-2z"/><linearGradient id="SVGID_19_" gradientUnits="userSpaceOnUse" x1="427.7" y1="229" x2="428.2" y2="220.8" gradientTransform="scale(-1 1) rotate(6 -13 -5306)"><stop offset=".6" stop-color="#c8bbaa"/><stop offset=".7" stop-color="#d4c7b6"/><stop offset="1" stop-color="#f5e8d5"/><stop offset="1" stop-color="#fbeedb"/></linearGradient><path d="M160 237l4-1v8h-1l-3 1 1-1v-6l-1-1z" fill="url(#SVGID_19_)"/><path class="st1" d="M161 243l-1 2c-2 1-2-1-2-1v-6l2-2v1l1 1v5z"/><path class="st10" d="M161 240h-1l1-1v1zM161 243h-1 1z"/><path class="st14" d="M160 243h-1l1-3v3zM161 240h-1 1zM161 244h-1v-1h1z"/><path class="st15" d="M136 242l11 2 12-1h1v-3h-1l-12 1c-8 0-11-2-11-2v3z"/></g></g></g><g id="male_back_2_11_"><path class="st0" d="M336 389c0 13 32 14 43 12 8-1 31-5 32-12 1-5-3-25-8-20-22 20-67 15-67 20z"/><path class="st60" d="M345 243l-3-4-2-1-1-1 1-1h1l1 1-1-1v-1h-1l-1-1v-1l2 1 2 2-1-2-2-1 1-1 2 2 2 1-1-1-2-2 1-1 2 2 5 4c2 2 0 4 0 5-1 2-4 1-5 1z"/><path class="st60" d="M349 236l-1-2-1-1v-1l1-1 2 3v4l-1-2z"/><path class="st14" d="M368 262l-1-8 19-12c2-1 7-4 10 0 2 4-2 9-3 10-8 6-23 12-23 12l-2-2z"/><path class="st60" d="M347 241l3-2 21 14s4 3 2 9c-3 4-9-1-9-1l-18-18 1-2z"/><path class="st10" d="M411 389c-1 1-3 2-4 1h-5l-7-1-4-2c-1-3 1-4 3-5l3 1 5 1c2 1 5 2 5 0l2-1 2 4v2z"/><path class="st3" d="M409 387l-3 1-2 1h-6l-6-3-1-2c0-1 1-2 3-2a20 20 0 007-1v2c0 2 5 2 6 0 0-1 1-3 2-1l1 2c1 2 0 2-1 3z"/><path class="st1" d="M391 384l2 1c2 1 2-2 8-2 1 2 5 2 5 0s2-3 3-1l1 2v4l-3 1h-9l-3-1-4-2v-2z"/><path class="st10" d="M372 398l-4 1-5-2-6-1c-2 0-4-1-4-3-1-3 1-4 3-4l3 1 4-1 1 3c1 1 4 2 5 1l2-2 2 5-1 2z"/><path class="st3" d="M371 395l-4 1-1 1-3-1h-3c-2 0-2-2-3-2l-3-1-1-2 1-2h5l3-1 2 3c1 1 4 2 5 0 1-1 1-2 2-1l1 3-1 2z"/><path class="st1" d="M353 391v-1l2 3 9-2c2 1 4 2 5 0 1 0 1-2 2-1l1 3v4h-6l-3-1h-3l-4-1-3-2v-2z"/><g><path class="st1" d="M384 339s2 11 8 8c3-1 5-4 5-4l-2-30v-10s-4-3-11-2l-11 3 11 35z"/><path class="st1" d="M409 381c1 3-1 4-3 4-2 1-10 0-10-2-1-11-6-28-7-31l-4-10s0-3 4-4l7 2 6 13 7 28z"/></g><g><path class="st2" d="M359 340c0 3 0 10 2 11h9c2-1 10-36 10-36s-2-4-12-10c-3-2-5 0-5 0l-3 16-1 19z"/><path class="st2" d="M372 392c0 1-1 2-4 2-2 0-10-3-10-5l2-35-1-8s2-5 7-3c3 1 5 4 5 4l2 13c1 7-1 22-1 32z"/></g><g><path class="st1" d="M380 297l14-2 1 3c0 1 1 7-1 13-2 3-7 3-11 1 0-6 0-9-3-15z"/><path class="st2" d="M364 303l2-5 19-1c2 9 0 14-4 18 0 0-3 3-7 2-2-1-9-2-12-5l1-6 1-3z"/><path class="st10" d="M363 269c0 5 3 23 2 33-1 1 0 1 3 2 5 2 10 2 15 1l11-5 1-3v-19l2-19v-13c-1-3-4-7-6-6l-2 1-13 5-2 2-10 5-1 8v8z"/></g><g><path class="st4" d="M338 263c-1-2 2-7 2-7l23-3c4 0 6 1 6 5 0 3-5 7-8 7l-22 1-1-3z"/><path class="st14" d="M352 261l2-8h9c4 0 6 1 6 5s-4 7-8 7l-8 1-1-5z"/><path class="st4" d="M324 239h2l16 17s3 4-1 9c-3 3-6 0-6 0l-13-22s-1-2 2-4z"/><g><path class="st4" d="M323 243c-3-1-3-2-5-4l-2-2h-1v-1h1l2 1-1-1-1-1h-1l-1-1v-1l2 1 2 1-1-1-2-2c-1 0 0 0 0 0l3 1 2 1-2-1-2-1 2-1 2 1 5 4c2 2 1 4 1 5-1 2-2 2-3 2z"/><path class="st4" d="M324 236l-1-2-1-1v-1-1l3 2 1 5-2-2z"/></g></g><g><linearGradient id="SVGID_20_" gradientUnits="userSpaceOnUse" x1="988.3" y1="195.9" x2="990.6" y2="170.8" gradientTransform="scale(-1 1) rotate(3 -599 -26021)"><stop offset="0" stop-color="#f2b98c"/><stop offset=".4" stop-color="#f7c69b"/><stop offset=".9" stop-color="#fcd1a9"/></linearGradient><path d="M367 228c-2-6 1-9 2-10 2-1 10 7 10 10v5l-2 4-1 4v2h-3c-4-1-4-4-4-5l-2-3-1-2 1-5z" fill="url(#SVGID_20_)"/><linearGradient id="SVGID_21_" gradientUnits="userSpaceOnUse" x1="381.7" y1="250.9" x2="381.7" y2="237.9" gradientTransform="scale(-1 1) rotate(2 56 -27060)"><stop offset=".1" stop-color="#fcd1a9"/><stop offset=".3" stop-color="#f8c69b"/><stop offset=".4" stop-color="#f2b585"/></linearGradient><path d="M385 236v10l-1 2c-2 2-5 2-7 1l-2-2v-10l10-1z" fill="url(#SVGID_21_)"/><path d="M373 232v2l-1 1-1-3c0-1 0-3 1-2s2 1 1 2z" fill="#e8b07d"/><g><path class="st3" d="M368 219c1-2 3-3 5-3h10l5 4 3 5v4l-1 5-2 4-1 3-5 2c-2 0-6 0-7-2s0-7-2-10l-1-1h-1v5s-3-3-3-6l-1-4-1-3 2-3z"/><path class="st2" d="M369 219l3-2 5-1 4 1v-1l1 1 2 1 2 1 2 1 2 4v2l-2 1-2 1-3-1-2-2 1 2-3-3-5-3 1 2-2-2h-2s1 0 0 0l-2-1v-1z"/></g><g><path class="st10" d="M367 223l-1-1-3 3 3 1v-1l1-2z"/><linearGradient id="SVGID_22_" gradientUnits="userSpaceOnUse" x1="308.3" y1="233.7" x2="308.9" y2="225.5" gradientTransform="translate(56)"><stop offset=".6" stop-color="#c8bbaa"/><stop offset=".7" stop-color="#d4c7b6"/><stop offset="1" stop-color="#f5e8d5"/><stop offset="1" stop-color="#fbeedb"/></linearGradient><path d="M366 226l-3-1-1 2 1 6 1 1h3l-1-1-1-6 1-1z" fill="url(#SVGID_22_)"/><path class="st1" d="M366 232l1 2 2-1-1-6-2-2v1l-1 1 1 2v3z"/><path class="st10" d="M365 229h2l-1-1-1 1zM366 232h1-1z"/><path class="st14" d="M367 232h1a398 398 0 01-1 0zM365 229h2-2zM366 233l1-1h-1z"/></g><path class="st15" d="M391 228s-3 2-11 3l-12 1h-1v-3l13-1c8-1 10-3 11-3v3z"/></g></g></svg>