<svg version="1.1" id="Layer_1" xmlns="http://www.w3.org/2000/svg" x="0" y="0" viewBox="0 0 500 500" xml:space="preserve"><style>.st0{fill:#009ef3}.st1{fill:#fff}.st2{fill:#bfc8cc}.st3{fill:#bed3de}.st4{fill:#f5c59a}.st5{fill:#141d29}.st6{fill:#27394d}.st7{fill:#fcd1a9}.st8{fill:#1a2736}.st9{fill:#334961}.st10{fill:#66cfff}.st11{fill:#9ce2f8}.st14{fill:#ebad77}.st15{enable-background:new}.st16{fill:#fbeedb}.st17{fill:#fff7eb}.st20{fill:#b09f8f}.st21{fill:#c8bbaa}.st26{fill:#fcdec2}.st30{fill:#dce4e6}</style><path class="st0" d="M320 143c-39-22-104-22-143 0-19 11-29 26-29 42l-1 72c0-15 11-30 30-41 39-23 103-23 143 0 17 10 29 24 31 38v-59-11-3c-2-14-13-28-31-38z"/><path class="st0" d="M321 143c17 10 28 24 30 38h-1c-2-14-12-28-30-38-39-22-104-22-143 0-23 14-33 33-28 52h-1c-6-19 5-38 28-52 40-23 105-23 145 0z"/><path class="st0" d="M146 257l1-72 1 10v72l-2-10z"/><path class="st1" d="M336 191v-1l4 6-4-5zm0-2l2 2v1l-2-3zm3 4v-1l1 2v1l-1-2zm1 0c-5-7-5-6-5-5l1 4 4 5v1l1-1-1-4zm-4 0l-2-4c0-2 0-4 2-2 5 6 5 6 5 9 0 2 0 3-1 2l-4-5zm4-6l-5-6-3 5 3 11 5 6 2-5-2-11zM323 174v-1l5 4v1l-5-4zm7 5v-1 1zm-7-7v-1l5 4-5-3zm7 5v-2 2zm-7-8v-1l5 4v1l-5-4zm7 5v-1 1c0 1 0 1 0 0zm-7-8l5 3v1l-5-4zm7 6v-2 2zm0-5l-7-6-5 6 5 10 7 6 3-5-3-11zM268 141l1-1 1-5h2l1 13-23-1v-5h3c1 1-1 2 1 3l2-1c0-4 3-2 3-2l1 1c0 1 2 2 3 1v-1-5c1-1 3-1 3 1s0 2 2 2zm-19-9v16l25 1v-15c-10-2-14-2-25-2zM330 189l-4-3-2 3 2 5 4 3 2-2-2-6zM335 175v-1l6 7-5-5-1-1zm6 5l-3-4v-1l3 4v1zm-6-7l2 2-2-2zm0-1v-1l6 7-5-5-1-1zm0-2v-1l1 2-1-1zm6 7l-3-4v-1l3 4v1zm-4-5v-1l1 1v1l-1-1zm2 1l-4-4v-1l4 4v1zm0 0l2 1v1l-2-2zm-4-6v-1l6 7-5-5-1-1zm5 2c-1-2-2-4-5-6l-3 5 3 10 5 7 2-5-2-11zM276 188c-1 3-4 3-7 2l-1 1c4 2 9 1 10-3h-2zm-11-5c-1 1-2 4 2 7l1-1c-3-2-2-4-2-5l-1-1zm5-2l-4 1 1 1 3-1v-1zm2 0v1l4 4 2 1c-1-3-3-5-6-6zM272 187l-2 2 5-1-3-1zm-4-2l1 3 1-2-2-1zm2-1h-1l1 1v-1zm2 0v2h3l-3-2zM262 194c-3 0-3 2-2 3s4 1 4-1v-1l-2 2-1-1 1-2zM270 158c-3 0-5 2-3 4l2 1v-2h2v3c3-1 3-4 1-5l-2-1zM248 172c-2 0-3 2-2 3h4l-2-1 1-1 2 1c0-1-1-2-3-2zM306 193c-1-1-2 0-3 1l3 1v1l-3-1c2 3 5 4 6 2l-3-4z"/><path class="st1" d="M249 173l-1 1 2 1 15 8 1 1 2 1 2 1v-1l-1-1-2-1-1-1-15-8-2-1zM270 186l-1 2-1 1-1 1-5 4-1 2 1 1 2-2 4-4 1-1 1-1 2-2h-1v-1h-1z"/><path class="st1" d="M271 161l-2-1v3l1 18v5h2v-5l-1-17v-3zM271 186v1h1l3 1h3l25 7 3 1v-1l-3-1c-9-3-13-5-25-7l-2-1h-5zM313 149c-8-4-15-7-29-10v2c9 2 17 4 29 10v-2zM313 153l-7-3v2l7 3v-2zM284 143v2l19 6v-2c-9-4-9-4-19-6zM298 151v2l15 6v-2l-15-6zM296 150l-4-1v2l4 1zM289 149l-5-2v2l5 2zM284 151v3c9 2 17 4 29 9v-2l-29-10zM296 159v2l17 7v-2l-17-7zM293 158l-9-2v2l9 2v-2zM313 170c-9-4-15-7-29-10v2c9 2 17 4 29 10v-2zM313 174l-29-10v2l29 10v-2zM313 179l-4-2v2l4 2zM307 176l-23-7v2l23 7v-2zM313 183l-9-4v2l9 4v-2zM302 178l-5-1v2l5 1zM295 176l-11-3v2l11 3v-2zM313 187l-29-10v2l29 10v-2zM280 177h-2v4l6 1v-1h-5l1-4zM316 190h-1v3l-4-1 5 3v-5zM284 135l-5-1v4h1v-3l4 1v-1zM316 147l-5-2v1l4 2v3h1v-4z"/><path class="st2" d="M271 134c-4 0 0 8-3 7-2 0-2-1-2-2 0-2-2-2-2-2l-1 2v5c-1 1-3 1-3-1l-3-1-1 3c-1 1-3 0-3-1v-3l-3 1v5l23 1v-12l-2-2zM341 173l-6-7v1l6 6zM341 174l-2-1 2 2zM335 168v1l4 4v-1l-4-4z"/><path class="st2" d="M338 172v1l3 4v-1l-3-4zM338 172l-1-1v1l1 1zM336 171l-1-2v1l1 1zM341 178l-6-7v1l6 6z"/><path class="st2" d="M338 175v1l3 4v-1l-3-4zM337 175l-2-2 2 2zM341 181l-6-7v1l6 6zM330 170l-1 1 1 1v-2zM330 173h-1l1 1v-1zM330 175l-1 1 1 1v-2zM330 178h-1l1 2v-2zM328 169l-5-3 5 4v-1zM328 172l-5-4v1l5 4v-1zM328 175c-2-3-3-3-5-4v1l5 3zM328 177l-5-4v1l5 4v-1zM336 192l-1-2v-3h1c5 6 5 7 5 8v2l-1 1v-1l-4-5zm4 0c-5-7-5-6-6-5 0 3 0 4 2 6l4 5h1v-1l-1-5z"/><path class="st2" d="M338 191l-2-2 2 3v-1zM340 194l-1-2v1l1 2v-1zM340 196l-4-6v1l4 5z"/><path class="st1" d="M167 219l-5 5v2l5-4v-3zM160 226l-3 3v3l3-4v-2zM156 231l-1 2v3l1-2zM154 235l-1 1v3l1-2zM152 238v3-1zM152 240l-1 1v2h1zM232 137l-26 5v2c10-3 14-4 26-5v-2zM232 141l-7 1v1l7-1zM206 145v2l17-3v-2l-17 3zM218 146v2l14-2v-2l-14 2zM216 146l-3 1v2l3-1zM211 148l-5 1v1l5-1zM232 148c-10 1-15 1-26 4v2l26-5v-1zM216 153v2l16-2v-2l-16 2zM214 154l-8 2v1l8-2v-1zM232 155c-10 1-15 1-26 4v2l26-5v-1zM232 158l-26 5v1l26-4v-2zM232 162h-4v2l4-1zM226 162l-20 4v2l20-4v-2zM232 165l-8 1v2l8-1v-2zM221 166l-3 1v2l3-1zM215 168l-9 2v1l9-2v-1zM232 169c-10 1-15 1-26 4v2l26-5v-1zM203 175h-1v3l4-1h-3zM235 170h-1v2l-4 1h5zM206 139l-4 1v4l1-1v-2l3-1z"/><path class="st1" d="M235 135h-5v1l4-1v3h1zM195 145l-20 10v14c7-5 11-6 20-10v-14zM182 168l-17 11v14c6-6 9-7 17-12v-13zM195 162l-11 5v14l11-5v-14zM173 157l-8 6v13l8-6v-13zM195 178l-10 5v14l10-5v-14zM182 185l-9 5v14l9-6v-13zM170 192l-4 3v7l-1 7 5-4v-13zM161 202c-4 4-7 7-9 14v1c2-4 3-8 9-14v-1zM161 205l-3 4v1l3-3v-2zM152 219v2l5-10v-1l-5 9zM155 216v1l6-7v-2l-6 8zM155 217l-1 2-1 1 2-2zM153 220l-1 2v2l1-3zM161 212c-4 4-7 7-9 14v1c2-4 3-8 9-14v-1zM155 223v2c2-3 2-5 6-8v-2l-6 8zM154 224l-2 5v2l2-5v-2zM161 218c-4 5-7 8-9 14v2c2-5 3-8 9-14v-2zM162 186l-3 3-1 5 1 3 3-3 1-6-1-2zM157 196l-2 4-1 5 1 3 2-4 1-5-1-3zM153 199l-1 2v5l1-2v-3zM153 207l-1 2-1 3 1 2 1-2v-4zM214 191c-2 1-3 0-3-2 0-4 0-5 3-6l18-3c1 0 3 0 3 2 0 5 0 6-3 7l-18 2zm18-12c-19 2-22 3-22 7 0 5 0 7 4 6l18-2 1-1 4-3c0-5 0-7-5-7z"/><path class="st1" d="M224 183l-10 2v1l10-1v-2zM233 182l-8 1v1h8zM233 185l-19 3v1l19-3v-1z"/><g><path class="st3" d="M459 344c0 7-16 10-37 10s-46-8-46-15 26-11 47-11c22 0 36 9 36 16z"/><path class="st4" d="M410 332c-1 2-1 2-3 2l-7 2-7 4c-4 2-6 0-6-2l5-4 7-5 3-6c3-4 8-1 8 1v8z"/><path class="st5" d="M410 332c0 2 0 3-2 4l-8 2c-2 1-5 3-8 3-3 1-5 0-5-2s1-2 3-4l7-5 2-2c1-2 4 1 4 1 3 1 4 0 5-1l2-1v5z"/><path class="st6" d="M409 331c0 2 0 3-2 3l-7 2-6 2c-4 1-7 1-7-1l5-3c2-2 4-2 5-5l2-2c1-3 4 2 4 2 4 1 5 0 6-1l1-1v3l-1 1z"/><path class="st6" d="M410 327l-1 1c-1 1-2 2-6 1l-4 4c-2 2-4 4-6 4-1 1-5 2-6 0 0 4 3 4 6 3l7-4 7-2c2 0 3 0 3-2v-5z"/><path class="st7" d="M454 336v6l-1 2-2 3c-2 1-2 2-3 1-1 0-4-3-3-5l1-8 1-6c2-3 7-1 6 1l1 6z"/><path class="st5" d="M455 337v4l-1 6c-3 4-8 4-9 2v-6l1-8c0-6 7-8 8-2l1 4z"/><path class="st6" d="M454 340l-1 5-2 3h-6l-1-4 1-10c0-2 1-5 6-4l3 1v9z"/><path class="st6" d="M454 331h-1l1 2-1 9-2 5-4 1-3-3v3c2 2 6 2 8 0l2-4v-5a224 224 0 010-8z"/><g><path class="st8" d="M415 276s-5 10-12 6c-3-2-2-6-2-6s1-10 5-28l8-22 10 5 13 6-22 39z"/><path class="st8" d="M411 328c0 2-2 3-4 4-3 1-11 1-11-1 2-14 6-44 5-47v-7s1-3 7-4c4 0 6 3 6 3l2 13c0 8-4 33-5 39z"/></g><g><path class="st9" d="M452 283s1 5-5 9c-2 1-7 0-8-2l-14-49 16-6c5-1 7 4 7 4l4 44z"/><path class="st9" d="M456 332c0 3-4 8-7 10-2 1-4-3-4-5l-5-44-1-5s2-3 7-5 6 2 6 2l3 10c1 8 2 31 1 37z"/></g><g><path class="st4" d="M382 192l-3 1-5-3-3-2-1-1 1-1 1 1 1 1-1-2-2-2 1-1 1 2 2 2-2-2-1-3c0-1 0-2 1-1l2 2 2 2-2-2-1-2v-1l3 2 4 3c3 0 4 2 4 4s-1 3-2 3z"/><path class="st4" d="M380 187l-2-4-1-1v-1s0-1 0 0l3 2 3 3-3 1z"/><path class="st10" d="M409 205c-4 0-4-7-4-7l4-21c1-4 2-7 5-8 4-1 6 6 6 8-1 11-7 26-7 26l-4 2z"/><path class="st10" d="M382 191c1-2 4-2 4-2l28 11-2 6c-2 5-10 3-13 2l-17-13v-4z"/><path class="st11" d="M383 196l-3-2 2-4 2-3 3 2-2 3-2 4z"/></g><g><path class="st8" d="M424 224l-10-2-1 4v4c1 3 5 5 8 9l4 2c0-6-2-10-1-17z"/><path class="st9" d="M447 232l-1-6-21-3c-3 8-1 16 0 18 2 0 5 1 10-1l8-2 5 1-1-7z"/><path class="st11" d="M446 227l-4 3c-6 2-12 3-17 2l-10-4c-2-2-2-3-2-5v-15l-1-9-1-12v-13c0-2 1-5 4-5 0 0 15 0 20 3l12 5c4 2 4 5 4 10l-2 6c-4 16-3 27-3 34z"/><g><path class="st5" d="M414 224l11 5c5 0 11 0 17-3l4-2 1 4-5 2c-6 3-12 3-17 3l-11-5c-2-1-1-4 0-4z"/><path transform="rotate(-6 434 231)" class="st9" d="M433 228h2v5h-2z"/><path class="st9" d="M414 229l1 1 1-5h-1z"/><path d="M422 232l3 1 1-1v-3l-1-1-3-1-1 1v3l1 1z" fill="#decfbd"/><path class="st9" d="M444 230l2-1-1-5-2 1z"/></g></g><g><linearGradient id="SVGID_1_" gradientUnits="userSpaceOnUse" x1="-90" y1="209.2" x2="-99.4" y2="190.7" gradientTransform="rotate(-2 -1272 -19808)"><stop offset=".1" stop-color="#fcd1a9"/><stop offset=".1" stop-color="#facba1"/><stop offset=".3" stop-color="#f4bb8c"/><stop offset=".5" stop-color="#f2b585"/></linearGradient><path d="M422 154l1 16 1 3c2 1 6 1 8-1l2-2 1-17-13 1z" fill="url(#SVGID_1_)"/><path class="st7" d="M441 153c-2 4-6 4-8 6-2 1-2 4-3 5l-2 2-5 2h-3l-2-1-1-1v-1l-1-4v-6l1-4 1-7c1-3 4-4 6-4 2-1 4-2 9-2 2 0 5 1 7 4s2 6 2 9l-1 2z"/><path class="st6" d="M435 163h-1v-3l1-5-3 1-1 3h-1v-3-3l-3-4c-9-9-2 0-3-1-2 0-5-3-6-4-3-3 0-4 1-5 3-1 10-2 15-1 8 2 9 9 8 13 0 0 0 7-7 12z"/><path class="st14" d="M432 157v3l1 1 2-4c1-2-1-2-2-2l-1 2z"/><path class="st7" d="M432 157v3l1 1 3-4c0-2-2-3-3-3l-1 3z"/><path class="st14" d="M435 157l-1-2-1 1v-1h1l1 2-1 2 1-2z"/><path class="st14" d="M433 158v1l1-2h-1v1z"/><g><g class="st15"><path class="st8" d="M415 146h2l4 3 9 4 2 1v7l-2 1v0l-1-1v-5-2l-14-8z"/><path class="st16" d="M414 146h1l14 8-3 2-14-8 2-2z"/><path class="st17" d="M412 148l14 8h-1l-13-8h-1 1z"/><linearGradient id="SVGID_2_" gradientUnits="userSpaceOnUse" x1="177.9" y1="123.5" x2="179.5" y2="113.9" gradientTransform="translate(607 40) scale(-1 1)"><stop offset=".5" stop-color="#b09f8f"/><stop offset=".6" stop-color="#c6b6a5"/><stop offset=".8" stop-color="#e3d4c2"/><stop offset=".9" stop-color="#f5e7d4"/><stop offset="1" stop-color="#fbeedb"/></linearGradient><path d="M426 156l3-2 1 2v1l-1 1v2l1 1v1l-1 1-2 1v-7l-1-1z" fill="url(#SVGID_2_)"/><radialGradient id="SVGID_3_" cx="192.6" cy="110.4" r="10" gradientTransform="translate(607 40) scale(-1 1)" gradientUnits="userSpaceOnUse"><stop offset="0" stop-color="#334961"/><stop offset=".6" stop-color="#223244"/><stop offset="1" stop-color="#1a2736"/></radialGradient><path d="M412 148l-1 1v6l1 2 13 8 1-1v-7l-1-1-13-8z" fill="url(#SVGID_3_)"/><path class="st17" d="M425 156h1l1 1v7l-1 1v-8l-1-1z"/></g><path class="st20" d="M431 161v-4c0-1 0-1 0 0v4z"/><path class="st21" d="M431 160v0l8-4 3-5 1-3h-1l-4 4-7 5v3zM430 157h1v-1h-1z"/><path class="st20" d="M430 162l1-1h-1z"/></g><path d="M428 175l-3 1-2-1v-4 1l3 1 3-1-1 3z" fill="#941532"/><g><linearGradient id="SVGID_4_" gradientUnits="userSpaceOnUse" x1="351" y1="183.4" x2="374.2" y2="207.3" gradientTransform="scale(-1 1) rotate(4 -25 -10277)"><stop offset="0" stop-color="#d12c52"/><stop offset=".8" stop-color="#e73c63"/><stop offset="1" stop-color="#ed4068"/></linearGradient><path d="M420 212l3 4 3-4c-2-13 0-27 1-37h-3c-2 10-5 23-4 37z" fill="url(#SVGID_4_)"/><path d="M423 176l2 1 2-1v-3l-1-1-2-1-1 1v4z" fill="#ed4068"/></g><path class="st10" d="M423 172l-2 3-3 2 2-6 3-2v3zM437 172l-2 3c-1 2-7 5-7 5v-5c0-2 9-3 9-3z"/><path class="st11" d="M437 171l-2 4-6 4-2-5-1-2 6-2 2-4 3 5z"/></g><g><path class="st7" d="M433 213l-3 2c-2 2-3 2-5 2h-5v-1h3l-2-1h-3v-2l3 1h-1l-3-2v-1l3 1h3l-3-1h-2v-2l3 1 5-1c2-2 4-1 5 0 2 1 2 3 2 4z"/><path class="st7" d="M427 210l-2-3h-2v-2l4 1 3 2c1 0-2 3-3 2z"/><path class="st10" d="M466 208c-3 4-9-1-9-1l-10-15c-2-2-6-10-2-14 3-2 6 1 8 2 7 9 12 20 14 25 1 0 1 1-1 3z"/><path class="st10" d="M431 213l2-4 29-6s6-1 6 4-5 8-8 8l-27 1s-2-1-2-3z"/><path d="M434 217l-4-1v-4l1-4 3 1v3 5z" fill="#77d9f8"/></g></g><g><path class="st3" d="M105 349c0 8-14 11-38 11-23 0-34-8-34-16s12-13 36-13 36 10 36 18z"/><path class="st4" d="M78 339l4 4 5 6 6 2c3-1 3-2 3-3l-4-4c-3-2-3-4-5-6l-1-5c-3-3-7-2-7 0l-1 6z"/><path class="st8" d="M79 336l1 1 4 7 4 2 3-1 1-1 3 2c2 1 2 2 2 3 0 2-3 2-6 2-4 0-6-4-7-5l-2-2-1 4h-1l-1-7v-5z"/><path class="st26" d="M49 339c-1 2 1 5 1 6l3 6 3 3h5v-4c-4-5-2-7-3-9v-6c-2-4-7-2-7-2l-2 6z"/><path class="st8" d="M50 335l1 2 1 8 3 3 3 1 1-2 3 4v3c-1 2-4 1-6 0-4-2-5-6-5-8l-1-2-2 3h-2l2-7 2-5z"/><path class="st4" d="M73 281s3 10 11 8c3-1 4-5 4-5l2-33c0-11-2-19-2-19s-3-2-12 0l-11 5 8 44z"/><path class="st4" d="M79 334c0 1 0 2 3 3 2 0 4-1 4-3-1-16 0-37 1-40v-10l-8-3c-4 0-6 3-6 3v13c0 8 6 29 6 37z"/><path class="st26" d="M62 287s1 6 6 8c2 1 7-1 7-4l3-32v-16s-4-7-18-7c-5 0-6 5-6 5a509 509 0 008 46z"/><path class="st26" d="M52 330c-1 3-2 5 0 7s5 2 5 0c4-17 14-36 16-39l2-6s-1-5-6-7c-4-1-5 1-5 1l-7 11c-3 8-4 26-5 33z"/><path class="st8" d="M54 235l2-5 15-3 17-4 2 5c0 1 2 4 2 11 1 7-3 41-4 42-2 3-19 10-27 4l-8-41 1-9z"/><path class="st0" d="M94 198l5-6-6-19c-3-7-5-12-10-11s-5 8-4 10l11 26h4z"/><g><path class="st11" d="M53 194c2 5 10 14 3 36l4 3c5 2 12 1 18 0l9-5c2-2 3-5 2-7-1-4-3-7-2-13a124 124 0 012-12l3-7 1-5-7-18c-1-2-6-8-8-6l-22 15c-3 2-5 7-5 11l2 8z"/><path class="st0" d="M80 193l6 4 2 4 1-5 3-7c-1 2-2 4-5 4h-7zM62 198c1 1 6 7 8 6 3-1 7-7 7-7l-5 3c-5 1-10-3-10-2z"/></g><g><path class="st4" d="M112 217h3l4 3 2 2v2h-1v-1l-1-1 1 2 1 2-1 1-1-3-1-1 1 2 1 4h-2l-1-3-1-2 1 2 1 2-1 1-1-3-3-2c-3-1-3-3-3-5l2-2z"/><path class="st4" d="M113 223l1 2 1 1v2h-1l-3-2-1-4 3 1z"/></g><g><path class="st8" d="M73 159c2 3-4 2-2 5 2 5 7 6 10 5 4-1 3-6-1-18l-2-12c-1-2-7-5-11-6-9-1 1 17 6 26z"/><linearGradient id="SVGID_5_" gradientUnits="userSpaceOnUse" x1="132" y1="144.3" x2="132" y2="124.6" gradientTransform="scale(-1 1) rotate(7 -202 -1426)"><stop offset=".1" stop-color="#fcd1a9"/><stop offset=".1" stop-color="#facba1"/><stop offset=".3" stop-color="#f4bb8c"/><stop offset=".4" stop-color="#f2b585"/></linearGradient><path d="M73 154l2 16c1 1 0 2-1 3-2 1-6 2-8 1l-2-3-2-16 11-1z" fill="url(#SVGID_5_)"/><path class="st7" d="M55 150c1 5 6 5 8 7 2 1 2 4 3 5l3 2 5 3h4a5 5 0 003-2l1-2v-4-6l-1-6-2-6c-1-3-3-3-4-4l-10-2c-2 0-5 0-8 3s-3 7-2 11v1z"/><path class="st14" d="M65 155l1 3c1 1 0 2-1 2-2-1-4-3-4-5s1-3 3-3l1 3z"/><path class="st7" d="M65 155l1 3c1 1 0 2-1 1-2 0-4-3-4-4 0-2 1-3 3-3l1 3z"/><path class="st14" d="M62 155l1-2 1 1v-1h-1c-1 0-2 1-1 2l2 3-2-3z"/><path class="st14" d="M64 156l1 1-2-2h1v1z"/><path class="st8" d="M52 146c0 2 0 9 5 17 2 3-1 9 1 12 2 5 6 7 8 7 4-1 5-6 4-11l-6-11-2-4v-3h2c1 0 5 2 12-6l4-8c0-2-12-7-17-7-9 2-11 11-11 14z"/><path class="st9" d="M75 137a11 11 0 00-1 8l-4 4-5 2-3 1-1 2v1l-1-1 1-3 4-2 4-2 2-1 2-2 1-3 1-4z"/><path class="st9" d="M70 136v5c-1 2-1 4-3 5l-5 4-2 1-1 2v5a39 39 0 002 5l-3-5v-5l1-3 3-2 4-3c2-1 3-2 3-4l1-5z"/><path class="st9" d="M65 139v1l-2 4-2 2-2 2c-2 1-3 2-3 4l1 7 2 5v0l-1-3-1-2-2-7 1-3 2-2 2-2 2-2 3-3v-1z"/><g><g class="st15"><path class="st8" d="M82 142l-2 1h-1s1 1-2 3l-8 5-2 1 1 7h2v1-7-1l12-10z"/><path class="st16" d="M83 142h-1l-12 10 3 1 12-10-2-1z"/><path class="st17" d="M86 143h-1l-12 10h1l11-9h1v-1z"/><linearGradient id="SVGID_6_" gradientUnits="userSpaceOnUse" x1="-388.5" y1="86.3" x2="-385.4" y2="79.3" gradientTransform="rotate(-8 378 -3206)"><stop offset=".5" stop-color="#b09f8f"/><stop offset=".6" stop-color="#b3a292"/><stop offset=".7" stop-color="#bead9d"/><stop offset=".8" stop-color="#cfbfae"/><stop offset=".9" stop-color="#e7d9c6"/><stop offset="1" stop-color="#fbeedb"/></linearGradient><path d="M73 153l-3-1-1 1 1 2v5h1l2 1-1-7 1-1z" fill="url(#SVGID_6_)"/><radialGradient id="SVGID_7_" cx="-373.6" cy="74.8" r="9.7" gradientTransform="rotate(-8 378 -3206)" gradientUnits="userSpaceOnUse"><stop offset="0" stop-color="#334961"/><stop offset=".6" stop-color="#223244"/><stop offset="1" stop-color="#1a2736"/></radialGradient><path d="M85 144h1l1 7v1l-12 9h-1l-1-7 1-1 11-9z" fill="url(#SVGID_7_)"/><path class="st17" d="M74 153h-1l-1 1 1 7h1l-1-7 1-1z"/></g><path class="st30" d="M69 158s0 1 0 0l-1-4h1v4z"/><path class="st16" d="M69 158l-8-3-9-7v-2-1l9 6a65 65 0 007 4h1v3z"/><path class="st30" d="M70 155h-2v-1h2zM70 159l-1-1h1z"/></g></g><g><path class="st7" d="M85 221h7l3-1h2l-1-1h-3l2-1h3v-1h-2l-4 1 3-1 3-1v-1h-3l-3 1 2-1 3-1h-1-3l-6 1c-4 0-4 2-4 4l2 2z"/><path class="st7" d="M87 215l2-2h2l1-1-1-1-4 1-3 4c1 1 2 0 3-1z"/><g><path class="st10" d="M52 217c4 2 7-3 7-3l2-26c1-2 1-8-4-10-4-2-6 1-7 6-3 16-2 28-2 28l4 5z"/><path class="st10" d="M86 219c0-3-2-4-2-4l-27-8s-7-2-8 1c-4 8 3 11 3 11l31 3 3-3z"/><path class="st0" d="M112 220c3-1 3-4 3-4l-13-21s-5-6-8-6c-5 2-4 9-4 9l19 22h3z"/></g></g></g><g id="male_back_2_12_"><path class="st3" d="M204 363c0 16 38 17 51 15 9-2 36-6 38-15 1-6-3-29-9-23-27 24-80 17-80 23z"/><path class="st4" d="M212 195c-2 0-3-1-5-3l-2-1-2-1 1-1h1l2 1-1-1-1-1-1-1h-2l1-2 2 1 2 2-1-2-3-1 1-1 3 1 2 2-1-2-3-2h2l3 1 6 4c2 2 1 4 1 6-1 2-5 2-5 1z"/><path class="st4" d="M214 187l-1-2-1-1-1-2h1l3 2 2 5-3-2z"/><path class="st20" d="M242 212l-1-9 23-14c2-1 8-4 11 1 3 4-2 9-3 11-10 7-27 14-27 14l-3-3z"/><path class="st4" d="M214 193l3-3 27 13s5 3 3 10c-2 5-11 0-11 0l-23-17 1-3z"/><path class="st16" d="M293 364l-5 1-6-1h-7c-2 0-4-1-5-3-2-3 0-5 2-6l5 1 6 2h6c1-2 1-3 2-2l2 4v4z"/><path class="st6" d="M291 361l-4 1-2 1h-7l-7-3-2-2c0-1 1-3 4-3a24 24 0 008-1v2c1 2 6 2 7 0l2-2 2 4c1 1 0 1-1 3z"/><path class="st8" d="M269 357l3 2c2 0 2-2 9-3 2 2 7 2 6 0 0-2 3-3 3-2l2 4v4l-4 2-3-1h-7l-4-1-4-2-1-3z"/><path class="st16" d="M247 374l-5 1-6-2-7-1c-2 0-4-2-5-4-1-3 2-4 4-5l4 1h4c1-1 2 3 2 3 1 1 4 2 6 0 0-1 1-2 2-1l2 6-1 2z"/><path class="st6" d="M245 371l-4 1-1 1-4-1-4-1c-2 0-2-2-3-2l-4-1-1-3c0-1 0-2 2-2h5l5-1 1 3c1 2 5 3 6 1 1-1 2-3 3-1l1 3c0 2 0 2-2 3z"/><path class="st8" d="M224 366v-1l3 3c2 1 6-2 11-2 1 1 4 2 5 0 1-1 2-3 3-1l1 3v5h-7l-4-1-4-1-4-1-4-2v-2z"/><g><path class="st8" d="M261 305s2 12 9 9c4-1 7-5 7-5s-4-29-3-35v-13s-4-3-13-1l-13 3 13 42z"/><path class="st8" d="M291 354c1 3-2 4-4 5s-11-1-12-3c-1-12-7-33-8-36l-5-12s0-3 5-5c4-1 8 3 8 3l8 15c2 7 4 21 8 33z"/></g><g><path class="st9" d="M231 305c1 4 1 12 3 13 1 2 9 2 11 0 2-1 11-42 11-42s-2-5-14-12c-3-2-6 0-6 0l-3 18-2 23z"/><path class="st9" d="M247 367c0 1-1 2-5 2-2 1-12-3-11-5 1-14 2-39 1-43v-9s2-5 8-3c4 1 5 5 5 5l3 15c1 9-1 26-1 38z"/></g><g><path class="st8" d="M256 254l17-2 1 3c0 2 1 9-1 15-2 4-8 5-14 2 1-7 1-11-3-18z"/><path class="st9" d="M238 262l2-7 22-1c3 11 0 17-4 21 0 0-4 4-8 3s-12-3-15-6l1-7 2-3z"/><path class="st16" d="M236 221c0 6 4 27 2 39 0 1 0 2 4 3 6 1 12 2 18 1 5-1 12-4 13-6l1-4v-22l3-22-1-17c-1-3-4-7-7-6l-2 1-15 6-3 2-12 7-1 9v9z"/></g><g><path class="st7" d="M206 214c-1-3 3-8 3-8l27-3c5 0 7 1 7 5s-5 8-10 9l-25 1-2-4z"/><path class="st20" d="M223 211c0-5 2-7 2-7l11-1c5 0 7 1 7 5s-5 8-10 9h-9l-1-6z"/><path class="st7" d="M189 186c4-2 4 0 4 0l18 20s4 5-1 11c-3 3-7-1-7-1l-15-26s-1-2 1-4z"/><g><path class="st7" d="M189 190c-3-1-4-2-6-5l-2-1-2-1 1-1h1l1 1-1-1-1-1-1-1h-1v-1h3l2 2-2-2-2-1c-1-1 1-1 1-1l3 2 2 1-2-2-2-1 1-1 3 1 6 5c3 2 2 4 1 6s-2 3-3 2z"/><path class="st7" d="M190 182l-1-2-1-1-1-2h1l3 2 2 5-3-2z"/></g></g><g><linearGradient id="SVGID_8_" gradientUnits="userSpaceOnUse" x1="1110.1" y1="136.8" x2="1112.8" y2="107" gradientTransform="scale(-1 1) rotate(3 -599 -26021)"><stop offset="0" stop-color="#f2b98c"/><stop offset=".4" stop-color="#f7c69b"/><stop offset=".9" stop-color="#fcd1a9"/></linearGradient><path d="M241 172c-2-7 1-11 2-11 3-1 12 9 13 12l-1 5-3 5-1 5v2h-3c-5-1-5-4-5-5l-2-5c-1 0-2 0-1-1l1-7z" fill="url(#SVGID_8_)"/><linearGradient id="SVGID_9_" gradientUnits="userSpaceOnUse" x1="503.9" y1="196" x2="503.9" y2="180.6" gradientTransform="scale(-1 1) rotate(2 56 -27060)"><stop offset=".1" stop-color="#fcd1a9"/><stop offset=".3" stop-color="#f8c69b"/><stop offset=".4" stop-color="#f2b585"/></linearGradient><path d="M262 182v12l-1 3h-8l-2-2v-12l11-1z" fill="url(#SVGID_9_)"/><path d="M249 178l-1 1-1 2c-2 0-1-3-1-4-1-1 0-3 1-2s2 1 2 3z" fill="#e8b07d"/><g><path class="st6" d="M242 161l5-3c4-1 9-1 13 1l6 4 3 6v5l-1 6-2 4-2 3c0 2-3 3-5 3-3 0-7 0-8-2-1-3-1-9-3-12l-1-2-2 1v2l1 4s-4-4-4-8c1-3-1-4-1-4l-1-3 2-5z"/><path class="st9" d="M243 162l4-3 5-1 6 2-1-1a310 310 0 004 1l2 1 2 3 3 3v3c-1 2-3 2-3 2v-1l-2 1h-3l-2-3v2l-3-4-5-3 1 2-3-1-3-1 1 1-3-1v-2z"/></g><g><path class="st16" d="M240 166l-4 3 4 1v-1-3z"/><linearGradient id="SVGID_10_" gradientUnits="userSpaceOnUse" x1="181.8" y1="179.3" x2="182.4" y2="169.6" gradientTransform="translate(56)"><stop offset=".6" stop-color="#c8bbaa"/><stop offset=".7" stop-color="#d4c7b6"/><stop offset="1" stop-color="#f5e8d5"/><stop offset="1" stop-color="#fbeedb"/></linearGradient><path d="M240 170l-4-1-1 2 2 8h4l-1-1-1-6 1-2z" fill="url(#SVGID_10_)"/><path class="st8" d="M240 177l1 2c3 1 2-1 2-1l-1-7-2-2v1l-1 2v2l1 3z"/><path class="st16" d="M239 173l2 1-2-1zM240 178l1-1h-1z"/><path class="st20" d="M241 178h1l-1-4h-1l1 4zM239 174h2l-2-1z"/><path class="st20" d="M240 178h1v-1l-1 1z"/></g><path class="st21" d="M269 172c0 1-3 3-12 4l-15 1h-1l-1-3h1l15-1c9-1 13-4 13-4v3z"/></g></g><g><path class="st0" d="M351 185v73c0 15-11 30-30 41-40 24-104 24-144 0-16-8-26-19-29-32v-72c4 12 14 23 29 32 40 23 105 23 144 0 19-11 30-26 30-42z"/><path class="st0" d="M351 181c2 17-9 34-30 46-39 23-104 23-144 0-15-9-25-20-29-32h1c4 12 13 23 29 31 39 23 103 23 143 0 20-12 31-28 29-45h1z"/><path class="st1" d="M236 277v-1h10v1h-10zm0-2h5v1l-5-1zm6 1v-1h4v1h-4zm3-2l-9-1h-1l-1 2c0 2 0 3 2 3l11-1c0-3 0-3-2-3zm-9 5c-2-1-3-1-3-3s0-3 3-3h10l2 2c0 2 0 4-3 4h-9zm10-11h-12l-5 7 5 8 12 1 6-8-6-8zM215 268v-1l8 2-8-1zm10 2l-1-1h2l-1 1zm-10-5l8 1v1l-8-2zm10 2l-1-1 2 1h-1zm-10-4v-1l8 2-8-1zm10 2v-1h1l-1 1zm-10-5l8 1v1l-8-2zm10 2v-1l1 1h-1zm1-5l-12-1-5 6 5 9 12 2 5-7-5-9zM164 233l1-1v-5c1-1 2 0 2 1v13l-12-11v-5l1 1 1 5h1v-2l1 1 1 1 1 2 1-1v-5l1 2 1 4zm-9-18v15l13 13v-16c-6-4-9-7-13-12zM226 279l-6-1-3 4 3 5h6l3-3c-1-2-3-3-3-5zM235 262v-1h11v1h-11zm11-2h-7v-1l7 1zm-11 0v-1h3v1h-3zm0-2h11v1l-11-1zm0-1v-1h2v1h-2zm3 0v-1h1v1h-1zm8 0h-6v-1l6 1zm-4-1l-7-1h7v1zm1 0v-1h3v1h-3zm-8-2v-1h11v1h-11zm11-4h-12l-5 7 5 8 12 1 6-8-6-8zM170 281c-1 3-3 2-5 0l-1 1c3 3 6 4 7 0l-1-1zm-7-8c-1 1-1 4 1 7v-5l-1-2zm3 0l-3-1 1 2h2v-1zm1 0v2l3 5 1 1-4-8z"/><path class="st1" d="M167 279l-1 1c1 2 2 2 3 1l-2-2zm-3-3l1 3 1-1-2-2zm2-1h-1l1 2v-2zm1 1v2l2 1-2-3zM161 283c-1-1-2 0-1 1 0 1 1 3 2 2v-2l-1 1-1-1 1-1zM166 250c-2-2-3 0-2 2l1 3v-3l1 1v3c2 0 3-2 1-4l-1-2zM154 254l-1 1 2 3-1-2h1v2c1-2 0-3-1-4zM195 290l-3 1 3 1v2l-2-1c1 3 4 3 5 1l-3-4z"/><path class="st1" d="M155 256h-1l1 2 8 15 1 2v1l2 2v-1l-1-2-1-1-1-2-8-14v-2zM166 278l-1 1h-1v1l-3 3-1 1 1 1 1-1 2-2 1-1 1-1 1-1h-1v-1z"/><path class="st1" d="M166 253l-1-1v3l1 18v5h1v-5l-1-17v-3zM166 278v1h1l2 2h1l1 1c7 5 13 7 22 11l2 1v-2l-3-1c-7-3-13-5-21-10l-1-1-1-1-2-1h-1zM202 246c-8-3-16-5-27-11v2c8 4 14 7 27 11v-2zM202 250l-7-2v2l7 2v-2zM175 239v2l18 8v-2l-18-8zM187 249v2l15 5v-2l-15-5zM185 248l-3-2v2l3 2zM180 245l-5-2v2l5 2zM202 258c-8-2-16-5-27-11v2c8 4 14 8 27 11v-2zM185 257v2l17 6v-2l-17-6zM183 256l-8-4v2l8 4v-2zM202 267c-8-3-16-5-27-11v2c8 4 14 7 27 11v-2zM202 271c-8-3-16-5-27-11v2c8 4 14 7 27 11v-2zM202 275l-4-1v2l4 1zM196 273c-9-3-13-4-21-9v2c8 4 11 6 21 9v-2zM202 280l-9-3v2l9 3v-2zM191 276l-4-2v2l4 2zM185 273l-10-4v2l10 4v-2zM202 284c-8-3-16-5-27-11v2c8 4 14 7 27 11v-2zM172 272l-1-1v4l4 3v-1l-3-2v-3zM206 286h-1v3l-4-1v1l5 2v-5zM175 231l-4-2v4h1v-3l3 2v-1zM206 244l-5-2v1l4 1v4h1v-4z"/><path class="st2" d="M166 227c-1-1-1 0-1 1v4l-1 1-1-3-1-3v1l-1 5-1-2-2-2v2l-1-2-1-2-1-2v5l12 11v-12l-1-2zM246 253h-11v1h11v-1zM246 255h-3v1h3zM235 255l7 1v-1zM240 256v1h6zM239 256h-1v1h1zM237 256h-2v1h2zM246 258h-11l11 1v-1zM239 259v1h7zM238 259h-3v1h3zM246 261h-11v1h11v-1zM225 261l-1 1h2l-1-1zM225 264c-1-1-1 0-1 1l2-1h-1zM225 266l-1 1h2l-1-1zM225 268l-1 2 2-1-1-1zM223 261l-8-1 8 2zM223 264l-8-2v1l8 1zM223 266l-8-1 8 2zM223 269l-8-2v1l8 1zM236 278l-2-2c0-2 0-3 2-3l9 1h1l1 1c0 3 0 3-2 3h-9zm9-5h-10l-2 1c0 3 0 4 3 5h10s2 0 2-2c0-3 0-4-3-4z"/><path class="st2" d="M241 275h-5l5 1zM246 275h-4v1h4zM246 276h-10v1h10v-1z"/><path class="st1" d="M289 305v3l8-3v-2l-8 2zM286 306l-6 1v3l6-1zM276 308l-3 1v2l3-1zM270 309h-2v3l2-1zM265 310h-1v2h1zM261 310h-1v2h1zM344 212c-1 3-4 8-10 14v1c2-3 7-7 10-14v-1zM344 215l-2 4v2l2-4v-2zM333 229v2l8-9v-2l-8 9zM339 226v2l5-8v-1l-4 7h-1zM338 227l-1 2v2l1-2zM336 230l-3 2v2l3-2v-2z"/><path class="st1" d="M344 222c-2 3-4 8-11 14v1c3-2 8-7 11-13v-2zM338 234v2l6-9v-2l-4 7-2 2z"/><path class="st1" d="M338 235l-5 4v2l5-4v-2z"/><path class="st1" d="M344 229c-2 3-4 8-11 14v1c3-3 8-7 11-13v-2z"/><path class="st1" d="M344 232c-2 3-4 8-11 14v2c3-3 8-7 11-14v-2zM344 236l-1 2v1l1-2z"/><path class="st1" d="M342 239c-2 4-4 6-9 10v2c4-3 6-5 9-11v-1zM344 239l-2 5v1l2-4v-2zM341 245l-2 2v2l2-3zM338 248l-5 5v2l5-5v-2z"/><path class="st1" d="M344 243c-2 3-4 8-11 13v2c3-3 8-7 11-14v-1zM332 259h-1v3l2-2-1 1zM345 242v3l-1 2v1l1-2zM334 223l-3 2v3h1v-3l2-2zM345 208l-1 2v1l1-2v3-1zM326 231l-18 10v14l18-10v-14zM315 254l-20 9v13l20-8v-14zM326 248l-8 6v7l-1 6 9-6v-13zM305 243l-10 3v14l10-4v-13zM326 264l-8 5v14l8-6v-13zM315 271l-10 5v13l10-4v-14zM302 276l-7 3v13l7-2v-14zM286 283c-9 2-13 3-24 3v2l24-4v-1zM286 286l-6 1v2l6-2zM262 290v1l16-2v-1l-16 2zM274 292v1l12-2v-2l-12 3zM272 292h-3v2l3-1zM267 293h-5v2l5-1zM286 292l-24 4v2l24-4v-2zM272 299v1l14-3v-1l-14 3zM270 299l-8 1v1l8-1v-1zM286 299l-24 4v2l24-4v-2zM288 267l-5 1-3 5 3 4 5-2 3-5-3-3zM278 274l-6 1-3 4 3 4 6-1 3-4-3-4zM267 272l-4 1-2 2 2 2h4l1-2zM266 279l-4 1-2 2 2 2h4l1-3zM342 261l-4 5v1l4-5v-1zM345 256l-3 4v1l3-4v-1zM345 258l-7 10v2l7-10v-2z"/></g></svg>