<svg id="Layer_1" data-name="Layer 1" xmlns="http://www.w3.org/2000/svg" viewBox="0 0 200 200"><defs><clipPath id="clip-path"><path fill="none" d="M0 0h200v200H0z"/></clipPath><style>.cls-3{fill:#fff}.cls-4{fill:#1d71b8}.cls-5{fill:#0093ca}.cls-6{fill:#3c3c3b}.cls-7{fill:#185184}.cls-8{fill:#1d1d1b}</style></defs><g clip-path="url(#clip-path)"><circle class="cls-3" cx="47.3" cy="42.2" r="31.4"/><path class="cls-3" d="M79 42a31 31 0 01-31 32c-8 0-21-14-21-32s12-31 21-31a31 31 0 0131 31zM27 30l-11 3v8l11-4z"/><path class="cls-3" d="M52 62c-8 0-13-7-13-8a2 2 0 113-2s4 7 10 7 12-7 12-7a2 2 0 013 2c-1 1-6 8-15 8zM84 34c0-7-5-16-14-16H36c-6 0-13 5-12 14s2 15 10 15 16-3 26-3 15 2 19 2 4-6 5-12zM4 104h96V91c0-8-26-18-48-18S4 84 4 93z"/><circle class="cls-4" cx="47.6" cy="43.3" r="29.3"/><path class="cls-5" d="M77 43a29 29 0 01-29 30c-7 0-19-13-19-30s11-29 19-29a29 29 0 0129 29z"/><path class="cls-6" d="M29 32l-11 3v7l11-3z"/><path class="cls-7" d="M52 62c-7 0-12-7-12-7a2 2 0 113-2s4 6 9 6 11-6 11-6a2 2 0 113 2c-1 0-6 7-14 7z"/><path class="cls-8" d="M82 36c0-7-5-15-13-15H37c-6 0-12 4-11 13s1 14 9 14 15-3 24-3 15 2 18 2 4-6 5-11z"/><path class="cls-5" d="M8 104h89V91c0-7-24-17-45-17S8 85 8 94z"/><circle class="cls-3" cx="125" cy="42.2" r="31.4"/><path class="cls-3" d="M157 42a31 31 0 01-32 32c-7 0-20-14-20-32s12-31 20-31a31 31 0 0132 31zM105 30l-11 3-1 8 12-4z"/><path class="cls-3" d="M130 62c-8 0-13-7-13-8a2 2 0 113-2s4 7 10 7 11-7 11-7a2 2 0 013 2c0 1-6 8-14 8zM161 34c1-7-4-16-14-16h-34c-7 0-12 5-12 14s2 15 11 15 16-3 25-3 16 2 20 2 4-6 4-12zM82 104h96V91c0-8-26-18-48-18S82 84 82 93z"/><circle class="cls-4" cx="125.3" cy="43.3" r="29.3"/><path class="cls-5" d="M155 43a29 29 0 01-29 30c-7 0-19-13-19-30s11-29 19-29a29 29 0 0129 29z"/><path class="cls-6" d="M107 32l-11 3v7l11-3z"/><path class="cls-7" d="M130 62c-8 0-12-7-12-7a2 2 0 013-2s3 6 9 6 10-6 11-6a2 2 0 112 2s-5 7-13 7z"/><path class="cls-8" d="M159 36c1-7-4-15-13-15h-31c-6 0-12 4-12 13s2 14 10 14 15-3 24-3 14 2 18 2 4-6 4-11z"/><path class="cls-5" d="M85 104h90V91c0-7-25-17-45-17S85 85 85 94z"/><circle class="cls-3" cx="52.6" cy="72.1" r="36.9"/><path class="cls-3" d="M90 72a37 37 0 01-37 37c-9 0-24-17-24-37s14-37 24-37a37 37 0 0137 37zM29 58s-13 2-13 4-2 9 0 9l13-5z"/><path class="cls-3" d="M59 96c-10 0-16-9-16-10a2 2 0 014-2s4 8 12 8c7 0 13-8 13-8a2 2 0 013 2c0 1-7 10-16 10zM96 62c0-8-6-18-17-19s-32 1-40 1-15 5-14 17 2 17 12 17 19-4 30-4 18 3 23 3 5-7 6-15zM2 145h113v-16c0-8-31-21-56-21S2 121 2 132z"/><circle class="cls-4" cx="53" cy="73.4" r="34.5"/><path class="cls-5" d="M88 73a34 34 0 01-34 35c-9 0-23-16-23-35s13-34 23-34a34 34 0 0134 34z"/><path class="cls-6" d="M31 60s-12 2-12 4-2 8-1 8l13-4z"/><path class="cls-7" d="M59 96c-9 0-15-9-15-9a2 2 0 014-2s4 7 11 7 12-8 12-8a2 2 0 013 3s-6 9-15 9z"/><path class="cls-8" d="M93 64c1-7-5-17-15-17H40c-8 0-14 5-13 16s2 16 11 16 18-4 29-4 17 3 21 3 5-7 5-14z"/><path class="cls-5" d="M6 144h105v-14c0-8-29-20-52-20S6 122 6 133z"/><circle class="cls-3" cx="141" cy="72.1" r="36.9"/><path class="cls-3" d="M178 72a37 37 0 01-36 37c-9 0-24-17-24-37s13-37 24-37a37 37 0 0136 37zM118 58s-14 2-14 4-1 9 0 9l14-5z"/><path class="cls-3" d="M147 96c-10 0-15-9-16-10a2 2 0 014-2s5 8 12 8 13-8 13-8a2 2 0 014 2c-1 1-7 10-17 10zM184 62c0-8-5-18-17-19s-32 1-40 1-15 5-14 17 3 17 12 17 19-4 30-4 19 3 23 3 5-7 6-15zM91 145h113v-16c0-8-32-21-57-21s-56 13-56 24z"/><circle class="cls-4" cx="141.4" cy="73.4" r="34.5"/><path class="cls-5" d="M176 73a34 34 0 01-34 35c-8 0-23-16-23-35s13-34 23-34a34 34 0 0134 34z"/><path class="cls-6" d="M119 60s-12 2-12 4-2 8 0 8l12-4z"/><path class="cls-7" d="M147 96c-9 0-14-9-15-9a2 2 0 114-2s4 7 11 7 12-8 12-8a2 2 0 114 3c-1 0-7 9-16 9z"/><path class="cls-8" d="M181 64c1-7-5-17-15-17h-37c-7 0-14 5-13 16s2 16 11 16 18-4 28-4 17 3 21 3 5-7 5-14z"/><path class="cls-5" d="M94 144h106v-14c0-8-29-20-53-20s-53 12-53 23z"/><circle class="cls-3" cx="53" cy="104.5" r="39.9"/><path class="cls-3" d="M93 105a40 40 0 01-39 39c-10 0-26-17-26-39s15-40 26-40a40 40 0 0139 40zM28 89s-15 3-15 4-1 10 0 10l15-5z"/><path class="cls-3" d="M60 130c-11 0-17-10-17-10a2 2 0 114-3s5 8 13 8c7 0 14-8 14-8a2 2 0 013 3s-7 10-17 10zM99 94c1-9-5-20-18-20H38c-9 0-16 6-15 18s3 19 13 19 21-5 33-5 19 4 24 4 6-8 6-16zM-1 183h122v-17c0-9-34-22-61-22s-61 14-61 26z"/><circle class="cls-4" cx="53.5" cy="105.9" r="37.2"/><path class="cls-5" d="M91 106a37 37 0 01-37 37c-9 0-24-17-24-37s14-37 24-37a37 37 0 0137 37z"/><path class="cls-6" d="M30 92s-14 2-14 3-1 10 0 9l14-4z"/><path class="cls-7" d="M60 130c-10 0-16-9-16-10a2 2 0 014-2s4 7 12 7c7 1 13-7 13-7a2 2 0 013 2c0 1-7 10-16 10z"/><path class="cls-8" d="M97 96c0-8-6-18-17-19s-32 1-40 1-15 5-14 16 2 18 12 18 19-4 30-4 18 3 23 3 5-8 6-15z"/><path class="cls-5" d="M3 182h113v-15c0-9-31-22-56-22S3 159 3 170z"/><circle class="cls-3" cx="141.5" cy="104.5" r="39.9"/><path class="cls-3" d="M182 105a40 40 0 01-40 39c-10 0-26-17-26-39s15-40 26-40a40 40 0 0140 40zM116 89s-14 3-14 4-2 10-1 10l15-5z"/><path class="cls-3" d="M148 130c-10 0-17-10-17-10a2 2 0 014-3s5 8 13 8 14-8 14-8a2 2 0 014 3s-8 10-18 10zM188 94c0-9-6-20-18-20h-43c-8 0-16 6-15 18s2 19 12 19 21-5 33-5 20 4 25 4 5-8 6-16zM87 183h122v-17c0-9-34-22-61-22s-61 14-61 26z"/><circle class="cls-4" cx="141.9" cy="105.9" r="37.2"/><path class="cls-5" d="M180 106a37 37 0 01-38 37c-8 0-24-17-24-37s14-37 24-37a37 37 0 0138 37z"/><path class="cls-6" d="M118 92s-13 2-13 3-2 10 0 9l13-4z"/><path class="cls-7" d="M148 130c-10 0-15-9-16-10a2 2 0 014-2s5 7 12 7c7 1 13-7 13-7a2 2 0 114 2c-1 1-7 10-17 10z"/><path class="cls-8" d="M185 96c1-8-5-18-17-19s-32 1-40 1-15 5-14 16 2 18 12 18 19-4 31-4 18 3 22 3 6-8 6-15z"/><path class="cls-5" d="M91 182h114v-15c0-9-31-22-57-22s-57 14-57 25z"/></g></svg>