<svg id="Layer_1" data-name="Layer 1" xmlns="http://www.w3.org/2000/svg" viewBox="0 0 200 200"><defs><style>.cls-2{fill:#0093ca}</style></defs><circle cx="92.8" cy="72.9" r="43.8" fill="#1d71b8"/><path class="cls-2" d="M137 73a44 44 0 01-44 44c-10 0-28-20-28-44s16-44 28-44a44 44 0 0144 44z"/><path d="M65 56s-16 3-16 4-2 12 0 11l16-5z" fill="#3c3c3b"/><path d="M100 101c-12 0-18-11-19-11a3 3 0 115-3s5 9 14 9 16-9 16-9a3 3 0 014 3c-1 0-9 11-20 11z" fill="#185184"/><path d="M144 61c0-9-7-21-20-22s-38 0-47 1-18 6-17 19 3 21 14 21 23-5 36-5 22 4 27 3 6-8 7-17z" fill="#1d1d1b"/><path class="cls-2" d="M33 163h134v-18c0-11-37-26-67-26s-67 16-67 29z"/></svg>